<svg width="236" height="51" viewBox="0 0 236 51" fill="none" xmlns="http://www.w3.org/2000/svg">
<path d="M6.88437 50.21C6.25213 50.21 5.73028 49.66 5.73028 48.99V2.94H1.65586C1.02362 2.94 0.50177 2.39 0.50177 1.72C0.50177 1.05 1.01358 0.5 1.65586 0.5H6.88437C7.51661 0.5 8.03845 1.05 8.03845 1.72V48.99C8.03845 49.66 7.52664 50.21 6.88437 50.21Z" fill="black"/>
<path d="M6.88436 16.3701H3.06082C2.42859 16.3701 1.90674 15.8201 1.90674 15.1501V9.34012C1.90674 8.67012 2.41855 8.12012 3.06082 8.12012H6.88436C7.5166 8.12012 8.03845 8.67012 8.03845 9.34012V15.1501C8.03845 15.8201 7.52664 16.3701 6.88436 16.3701ZM4.20487 13.9401H5.73028V10.5601H4.20487V13.9401Z" fill="black"/>
<path d="M6.80409 34.88H2.96048C2.32824 34.88 1.8064 34.33 1.8064 33.66V19.76C1.8064 19.09 2.31821 18.54 2.96048 18.54H6.78402C7.41626 18.54 7.93811 19.09 7.93811 19.76V33.66C7.95818 34.33 7.44637 34.88 6.80409 34.88ZM4.1246 32.45H5.65V20.99H4.1246V32.45Z" fill="black"/>
<path d="M30.6385 50.4999H25.3698C24.7376 50.4999 24.2157 49.9499 24.2157 49.2799V45.6299C24.2157 44.9599 24.7275 44.4099 25.3698 44.4099C26.0121 44.4099 26.5239 44.9599 26.5239 45.6299V48.0599H29.4944V45.6299C29.4944 44.9599 30.0062 44.4099 30.6485 44.4099C31.2908 44.4099 31.8026 44.9599 31.8026 45.6299V49.2799C31.8026 49.9499 31.2908 50.4999 30.6485 50.4999H30.6385Z" fill="black"/>
<path d="M61.6784 50.4999H34.9839C34.3516 50.4999 33.8298 49.9499 33.8298 49.2799V45.6299C33.8298 44.9599 34.3416 44.4099 34.9839 44.4099C35.6261 44.4099 36.1379 44.9599 36.1379 45.6299V48.0599H60.5343V45.6299C60.5343 44.9599 61.0461 44.4099 61.6884 44.4099C62.3307 44.4099 62.8425 44.9599 62.8425 45.6299V49.2799C62.8425 49.9499 62.3307 50.4999 61.6884 50.4999H61.6784Z" fill="black"/>
<path d="M92.5677 46.4901H18.656C18.2044 46.4901 17.7829 46.2 17.6023 45.76L9.40328 25.38C9.28285 25.09 9.28285 24.7501 9.40328 24.4401L17.5822 3.06005C17.7629 2.60005 18.1743 2.30005 18.656 2.30005H92.5677C93.0595 2.30005 93.481 2.61005 93.6616 3.12005L100.797 24.34C100.897 24.61 100.877 24.91 100.797 25.16L93.6616 45.69C93.481 46.15 93.0695 46.4901 92.5677 46.4901ZM19.4087 44.0601H91.7749L98.4686 24.75L91.7548 4.72005H19.4288L11.7014 24.8701L19.4087 44.0601Z" fill="black"/>
<path d="M99.703 25.9601H99.6829L92.7885 25.8101C92.1563 25.7901 91.6545 25.2401 91.6545 24.5701C91.6746 23.9001 92.1864 23.3701 92.8086 23.3701H92.8286L99.723 23.5201C100.355 23.5401 100.857 24.0901 100.857 24.7601C100.837 25.4101 100.325 25.9601 99.703 25.9601Z" fill="black"/>
<path d="M97.6758 43.8501H93.4709C92.8387 43.8501 92.3168 43.3001 92.3168 42.6301C92.3168 41.9601 92.8286 41.4101 93.4709 41.4101H96.5217V30.5601C96.5217 29.8901 97.0335 29.3401 97.6758 29.3401C98.3181 29.3401 98.8299 29.8901 98.8299 30.5601V42.6301C98.8299 43.3001 98.3181 43.8501 97.6758 43.8501Z" fill="black"/>
<path d="M97.6758 19.9399C97.0436 19.9399 96.5217 19.3899 96.5217 18.7199V7.36993H93.4508C92.8186 7.36993 92.2968 6.81993 92.2968 6.14993C92.2968 5.47993 92.8086 4.92993 93.4508 4.92993H97.6758C98.308 4.92993 98.8299 5.47993 98.8299 6.14993V18.7199C98.8299 19.3899 98.3181 19.9399 97.6758 19.9399Z" fill="black"/>
<path d="M76.5911 43.2798C76.4506 43.2798 76.2901 43.2598 76.1596 43.1998L66.094 38.8998C66.094 38.8998 66.0739 38.8998 66.0538 38.8798L64.5485 38.2298C64.2675 38.0998 64.0367 37.8698 63.9163 37.5798L59.0189 25.3798C58.8584 24.9598 58.9186 24.4798 59.1795 24.1398L60.5243 22.3798C63.0833 18.9798 67.3785 17.7598 71.2021 19.3598C71.5433 19.5098 71.7741 19.7798 71.8744 20.1598C71.9748 20.5398 71.9146 20.9198 71.7139 21.2098C71.2221 21.9398 70.8809 22.7598 70.7204 23.6698C70.6601 24.0498 70.62 24.3998 70.62 24.7798C70.62 25.3498 70.7003 25.9098 70.8408 26.4598C71.0816 27.3198 71.473 28.1198 72.025 28.7898C72.597 29.4998 73.3296 30.0698 74.1425 30.4298C74.855 30.7398 75.5876 30.8898 76.3603 30.8898H76.6012C77.4943 30.8498 78.3474 30.5998 79.1201 30.1598C79.8527 29.7398 80.505 29.1298 81.0068 28.3998C81.3279 27.9598 81.8799 27.7898 82.3716 27.9798C85.2217 29.1998 88.4531 28.3398 90.4201 25.8198L91.6645 23.7798C91.9054 23.3998 92.2968 23.1898 92.7383 23.2298C93.1498 23.2698 93.5311 23.5398 93.6917 23.9598L93.772 24.1498C93.8924 24.4398 93.8924 24.7798 93.772 25.0698L89.0753 37.3698C88.9549 37.6598 88.7341 37.9198 88.4632 38.0398L77.0327 43.1798C76.8922 43.2398 76.7316 43.2798 76.6012 43.2798H76.5911ZM72.2759 38.9098L76.0392 40.5298C73.8213 38.6798 72.5167 35.8498 72.5167 32.8298C72.5167 32.6398 72.5167 32.4298 72.5368 32.2398C72.1755 32.0298 71.8243 31.7798 71.4831 31.5098C71.0917 32.4798 70.891 33.4798 70.891 34.5098C70.911 36.0398 71.3626 37.5998 72.2759 38.9198V38.9098ZM74.8349 33.0998C74.9353 35.8098 76.4205 38.2598 78.799 39.4798C78.8792 39.5198 78.9595 39.5598 79.0197 39.6298L81.0369 38.7298C78.7387 37.7398 76.8521 35.7898 75.9087 33.2498C75.5474 33.2498 75.1962 33.1898 74.8349 33.0998ZM67.3986 36.8198L69.0645 37.5298C68.7634 36.5398 68.6129 35.5098 68.6129 34.5098C68.6129 32.8298 69.0043 31.1498 69.8372 29.6398C69.6164 29.3298 69.4458 28.9898 69.2853 28.6498C67.7398 30.0598 66.8667 32.0898 66.8667 34.2298C66.8667 34.7498 66.9269 35.2798 67.0273 35.8298L67.4086 36.8198H67.3986ZM78.3574 33.0398C79.5416 35.4298 81.8598 36.9898 84.5192 37.0298C84.6196 37.0298 84.6999 37.0498 84.7801 37.0698L87.2388 35.9798L87.6202 34.9898C84.7701 35.6198 81.7795 34.7798 79.5516 32.6598C79.1602 32.8098 78.7588 32.9298 78.3674 33.0398H78.3574ZM63.4145 30.0598L64.6188 33.0598C64.9198 30.3098 66.3047 27.8098 68.5025 26.1798C68.4222 25.7398 68.4021 25.2998 68.3821 24.8598C65.9836 25.5298 64.0869 27.4798 63.4045 30.0698L63.4145 30.0598ZM81.629 31.2898C83.6662 32.8898 86.3657 33.1798 88.7442 32.0198L89.6373 29.6698C87.4797 30.9498 84.8805 31.2898 82.4218 30.4898C82.1609 30.7598 81.91 31.0398 81.629 31.2898ZM61.4174 25.0798L62.1701 26.9698C63.555 24.4898 65.9334 22.7498 68.7133 22.2898C68.8136 21.9098 68.9541 21.5598 69.0946 21.1998C66.5757 20.6998 63.9865 21.6998 62.3407 23.8898L61.4275 25.0898L61.4174 25.0798Z" fill="black"/>
<path d="M85.1213 30.9199C83.9572 30.9199 82.763 30.6899 81.6189 30.1899C81.2777 30.0399 81.0469 29.7499 80.9466 29.3899C80.8462 29.0299 80.9064 28.6299 81.1272 28.3399C81.639 27.5799 82.0003 26.6999 82.1609 25.7799C82.2211 25.4199 82.2411 25.0699 82.2411 24.7299C82.2411 24.1799 82.1809 23.6399 82.0404 23.1099C81.7996 22.2099 81.3881 21.3699 80.796 20.6799C80.2441 20.0099 79.5315 19.4599 78.7588 19.1299C78.0463 18.7899 77.2736 18.6299 76.4807 18.6299H76.1797C75.3267 18.6699 74.5138 18.9199 73.7611 19.3399C72.9884 19.7799 72.316 20.4099 71.8042 21.1699C71.5031 21.6299 70.9311 21.7999 70.4594 21.5899C67.5692 20.3899 64.3378 21.3199 62.3909 23.8799L61.026 25.6399C60.6648 26.0999 60.0325 26.2299 59.5608 25.9099C59.0691 25.5999 58.8684 24.9699 59.0892 24.3999L63.7858 12.0999C63.9062 11.8099 64.127 11.5499 64.398 11.4299L75.8686 6.3099C76.1496 6.1799 76.4607 6.1799 76.7417 6.3099L87.0883 10.7399H87.1084L88.3528 11.2899C88.6338 11.4199 88.8646 11.6499 88.985 11.9399L93.8021 23.9499C93.9626 24.3299 93.9225 24.7499 93.7017 25.0799L92.4172 27.1799C92.4172 27.1799 92.377 27.2399 92.3369 27.2799C90.5305 29.6299 87.8811 30.9299 85.1414 30.9299L85.1213 30.9199ZM83.7665 28.3299C86.2654 28.8499 88.8345 27.9099 90.5004 25.7699L91.4337 24.2799L90.681 22.4099C89.3162 24.8899 86.9578 26.6299 84.1981 27.1099C84.0776 27.5099 83.9171 27.9299 83.7665 28.3299ZM84.3988 23.3799C84.459 23.7599 84.4991 24.1599 84.4991 24.5299C86.8775 23.8399 88.7642 21.8899 89.4165 19.2799L88.3227 16.5699C88.0015 19.2999 86.5966 21.7499 84.3988 23.3699V23.3799ZM83.0139 19.7899C83.2547 20.1499 83.4655 20.5199 83.6461 20.9199C85.2117 19.5099 86.1048 17.4599 86.1048 15.2899C86.1048 14.7699 86.0446 14.2399 85.9442 13.7199L85.6633 12.7499L83.7063 11.9099C84.0275 12.9199 84.178 13.9499 84.178 14.9999C84.1981 16.6399 83.7966 18.2699 83.0038 19.7899H83.0139ZM64.2073 17.3399L63.2138 19.9399C65.3714 18.6399 67.9505 18.2799 70.4293 19.0399C70.7103 18.6999 71.0013 18.4099 71.3225 18.1199C69.3053 16.5199 66.5857 16.1899 64.2073 17.3399ZM80.4046 17.2899C80.7258 17.4799 81.0168 17.6899 81.3179 17.9199C81.6992 16.9799 81.8899 15.9899 81.8899 14.9799C81.8899 13.4099 81.4182 11.8299 80.4648 10.4899L77.113 9.0599C79.2104 10.9299 80.4247 13.6599 80.4247 16.5999C80.4448 16.8299 80.4247 17.0599 80.4046 17.2899ZM67.1678 14.2099C69.4458 14.2099 71.6838 15.1099 73.4299 16.7899C73.7712 16.6399 74.1224 16.5199 74.4837 16.4299C73.2794 14.0399 70.9411 12.4999 68.3018 12.4999C68.2014 12.4999 68.081 12.4799 67.9807 12.4599L65.6825 13.4899L65.3413 14.3899C65.9334 14.2899 66.5456 14.1999 67.1678 14.1999V14.2099ZM76.8922 16.1999C77.3037 16.2199 77.7251 16.2799 78.1165 16.3699C78.0362 13.6599 76.5711 11.1899 74.1926 9.9499C74.0923 9.9099 74.012 9.8499 73.9317 9.7799L71.6938 10.7899C74.0321 11.7599 75.9188 13.6899 76.8822 16.2099L76.8922 16.1999Z" fill="black"/>
<path d="M33.89 43.11C33.7495 43.11 33.5889 43.09 33.4585 43.03L21.8473 38.06C21.5664 37.93 21.3355 37.7 21.2151 37.41L16.3178 25.21C16.3178 25.21 16.3178 25.19 16.2977 25.17C16.2776 25.11 16.2576 25.04 16.2375 24.98C16.1973 24.77 16.1973 24.56 16.2776 24.35C16.2776 24.33 16.2977 24.31 16.2977 24.29L20.9743 12.01C21.0947 11.72 21.3155 11.46 21.5864 11.34L33.0972 6.16C33.3782 6.03 33.6893 6.03 33.9703 6.16L44.2968 10.59H44.3169L45.5613 11.14C45.8423 11.27 46.0731 11.5 46.1935 11.79L51.0106 23.78C51.0106 23.78 51.0106 23.8 51.0307 23.82L51.111 24.01C51.2314 24.3 51.2314 24.64 51.111 24.93L46.4143 37.23C46.2939 37.52 46.0731 37.78 45.8022 37.9L34.2914 43.08C34.2111 43.1 34.0506 43.12 33.9 43.12L33.89 43.11ZM29.5948 38.75L33.3581 40.37C31.1402 38.52 29.8356 35.69 29.8356 32.67C29.8356 32.48 29.8356 32.27 29.8557 32.08C29.4944 31.87 29.1432 31.62 28.802 31.35C28.4106 32.32 28.2099 33.32 28.2099 34.35C28.2099 35.88 28.6815 37.44 29.5948 38.76V38.75ZM32.1538 32.95C32.2542 35.66 33.7395 38.11 36.1179 39.33C36.1982 39.37 36.2784 39.41 36.3387 39.48L38.3558 38.58C36.0577 37.59 34.171 35.64 33.2276 33.1C32.8664 33.08 32.5151 33.02 32.1538 32.95ZM24.6974 36.65L26.3633 37.36C26.0623 36.37 25.9117 35.34 25.9117 34.34C25.9117 32.66 26.3031 30.98 27.1361 29.47C26.9153 29.16 26.7447 28.82 26.5841 28.48C25.0386 29.89 24.1656 31.92 24.1656 34.06C24.1656 34.58 24.2258 35.11 24.3261 35.66L24.7075 36.65H24.6974ZM35.6562 32.87C36.8404 35.26 39.1586 36.82 41.818 36.86C41.9184 36.86 41.9987 36.88 42.079 36.9L44.5377 35.79L44.919 34.8C42.0689 35.43 39.0784 34.59 36.8505 32.47C36.4691 32.64 36.0777 32.78 35.6663 32.87H35.6562ZM20.7133 29.89L21.9176 32.89C22.2187 30.14 23.6036 27.64 25.8013 26.01C25.7211 25.57 25.701 25.13 25.6809 24.69C23.2824 25.36 21.3957 27.31 20.7033 29.9L20.7133 29.89ZM38.9278 31.13C40.965 32.7 43.6646 33.02 46.043 31.86L46.9362 29.51C44.7785 30.79 42.1793 31.13 39.7206 30.33C39.4798 30.6 39.2088 30.88 38.9278 31.13ZM31.5316 30.2C32.3244 30.56 33.1574 30.7 34.0104 30.66C34.9036 30.62 35.7566 30.37 36.5293 29.93C37.2619 29.51 37.9142 28.9 38.416 28.17C38.9278 27.41 39.2891 26.53 39.4497 25.63C39.5099 25.27 39.5299 24.92 39.5299 24.58C39.5299 24.03 39.4697 23.49 39.3292 22.96C39.0884 22.06 38.6769 21.22 38.0848 20.53C37.5329 19.86 36.8204 19.31 36.0476 18.98C35.3351 18.64 34.5624 18.48 33.7696 18.48H33.4685C32.6155 18.52 31.8026 18.77 31.0499 19.19C30.2772 19.63 29.6048 20.26 29.093 21.02C28.6013 21.75 28.2601 22.57 28.0995 23.48C28.0393 23.86 27.9991 24.21 27.9991 24.59C27.9991 25.16 28.0794 25.7 28.2199 26.25C28.4608 27.11 28.8521 27.91 29.4041 28.58C29.9962 29.31 30.7288 29.86 31.5417 30.22L31.5316 30.2ZM41.0654 28.17C43.5642 28.69 46.1333 27.75 47.7992 25.61L48.7325 24.12L47.9799 22.25C46.615 24.73 44.2567 26.47 41.4969 26.95C41.3966 27.35 41.236 27.77 41.0654 28.17ZM18.7363 24.93L19.489 26.82C20.8739 24.34 23.2523 22.6 26.0322 22.14C26.1325 21.76 26.273 21.41 26.4135 21.05C23.8946 20.55 21.3054 21.55 19.6596 23.74L18.7464 24.94L18.7363 24.93ZM41.7177 23.21C41.7779 23.59 41.818 23.99 41.818 24.36C44.1965 23.67 46.0832 21.72 46.7355 19.11L45.6416 16.4C45.3004 19.13 43.9155 21.61 41.7177 23.2V23.21ZM40.3328 19.62C40.5736 19.98 40.7844 20.35 40.965 20.75C42.5306 19.34 43.4237 17.29 43.4237 15.12C43.4237 14.6 43.3635 14.07 43.2632 13.55L42.9822 12.58L41.0252 11.74C41.3464 12.75 41.4969 13.78 41.4969 14.83C41.517 16.47 41.1156 18.13 40.3228 19.62H40.3328ZM21.5262 17.19L20.5327 19.79C22.6903 18.49 25.2695 18.13 27.7482 18.89C28.0292 18.55 28.3203 18.26 28.6414 17.97C26.6042 16.35 23.9046 16.04 21.5262 17.19ZM37.7135 17.13C38.0347 17.32 38.3257 17.53 38.6268 17.76C39.0081 16.82 39.1988 15.83 39.1988 14.82C39.1988 13.25 38.7271 11.67 37.7737 10.33L34.4219 8.92C36.5193 10.79 37.7336 13.52 37.7336 16.46C37.7336 16.67 37.7336 16.9 37.7135 17.13ZM24.4566 14.06C26.7347 14.06 28.9726 14.96 30.7188 16.64C31.06 16.49 31.4112 16.37 31.7725 16.28C30.5682 13.89 28.2299 12.35 25.5906 12.35C25.4902 12.35 25.3698 12.33 25.2695 12.31L22.9713 13.34L22.6301 14.24C23.2423 14.11 23.8545 14.05 24.4566 14.05V14.06ZM34.2111 16.03C34.6226 16.05 35.0441 16.11 35.4355 16.2C35.3552 13.49 33.89 11.02 31.5116 9.78C31.4112 9.74 31.3309 9.68 31.2506 9.61L29.0127 10.62C31.351 11.61 33.2377 13.52 34.2011 16.04L34.2111 16.03Z" fill="black"/>
<path d="M47.6286 46.49C47.4881 46.49 47.3276 46.47 47.1971 46.41C46.605 46.16 46.324 45.44 46.5649 44.81L54.2721 24.57L46.0029 3.99002C45.7419 3.38002 46.0229 2.65002 46.615 2.39002C47.1871 2.12002 47.8795 2.41002 48.1204 3.04002L56.5602 24.09C56.6807 24.38 56.6807 24.72 56.5602 25.01L48.6924 45.71C48.4917 46.19 48.0802 46.49 47.6186 46.49H47.6286Z" fill="black"/>
<path d="M62.8425 18.62C62.3909 18.62 61.9694 18.35 61.7887 17.89L56.219 3.99002C55.9581 3.38002 56.2391 2.65002 56.8312 2.39002C57.4233 2.12002 58.0957 2.41002 58.3365 3.04002L63.9062 16.94C64.1672 17.55 63.8862 18.28 63.2941 18.54C63.1335 18.6 62.9729 18.62 62.8425 18.62Z" fill="black"/>
<path d="M57.8147 46.49C57.6742 46.49 57.5136 46.47 57.3832 46.41C56.7911 46.16 56.5101 45.44 56.7509 44.81L61.7888 31.61C62.0296 30.98 62.702 30.69 63.2941 30.94C63.8862 31.19 64.1672 31.91 63.9263 32.54L58.8885 45.74C58.7079 46.2 58.2763 46.5 57.8147 46.5V46.49Z" fill="black"/>
<path d="M17.1507 7.36993H6.88437C6.25213 7.36993 5.73029 6.81993 5.73029 6.14993C5.73029 5.47993 6.2421 4.92993 6.88437 4.92993H17.1507C17.783 4.92993 18.3048 5.47993 18.3048 6.14993C18.3048 6.81993 17.793 7.36993 17.1507 7.36993Z" fill="black"/>
<path d="M17.1106 43.8499H6.88437C6.25213 43.8499 5.73029 43.2999 5.73029 42.6299C5.73029 41.9599 6.2421 41.4099 6.88437 41.4099H17.1106C17.7428 41.4099 18.2647 41.9599 18.2647 42.6299C18.2647 43.2999 17.7529 43.8499 17.1106 43.8499Z" fill="black"/>
<path d="M50.0974 25.8001C49.4651 25.8001 48.9433 25.2501 48.9433 24.5801C48.9433 23.9101 49.4551 23.3601 50.0974 23.3601L55.5065 23.3401C56.1387 23.3401 56.6606 23.8901 56.6606 24.5601C56.6606 25.2301 56.1488 25.7801 55.5065 25.7801L50.0974 25.8001Z" fill="black"/>
<path d="M17.4016 26.1099H10.447C9.81475 26.1099 9.29291 25.5599 9.29291 24.8899C9.29291 24.2199 9.80472 23.6699 10.447 23.6699H17.4016C18.0339 23.6699 18.5557 24.2199 18.5557 24.8899C18.5557 25.5599 18.0439 26.1099 17.4016 26.1099Z" fill="black"/>
<path d="M111.555 50.49V0.48999L110.551 0.48999V50.49H111.555Z" fill="black"/>
<path d="M125.281 20.96C125.969 20.88 126.689 20.82 127.441 20.78C128.201 20.74 128.945 20.72 129.673 20.72H130.009C130.681 20.72 131.237 20.784 131.677 20.912C132.117 21.04 132.469 21.212 132.733 21.428C132.997 21.644 133.181 21.9 133.285 22.196C133.389 22.484 133.441 22.792 133.441 23.12V23.36C133.441 23.712 133.337 24.032 133.129 24.32C132.921 24.608 132.549 24.824 132.013 24.968C132.325 25.04 132.589 25.132 132.805 25.244C133.021 25.356 133.193 25.484 133.321 25.628C133.449 25.772 133.541 25.928 133.597 26.096C133.653 26.256 133.681 26.424 133.681 26.6V26.84C133.681 27.168 133.625 27.48 133.513 27.776C133.401 28.064 133.205 28.316 132.925 28.532C132.645 28.748 132.269 28.92 131.797 29.048C131.325 29.176 130.729 29.24 130.009 29.24H129.673C128.945 29.24 128.201 29.22 127.441 29.18C126.689 29.14 125.969 29.08 125.281 29V20.96ZM129.721 22.64C129.425 22.64 129.069 22.648 128.653 22.664C128.245 22.68 127.841 22.708 127.441 22.748V24.08H129.577C130.065 24.08 130.441 24.064 130.705 24.032C130.969 23.992 131.161 23.94 131.281 23.876C131.401 23.812 131.469 23.736 131.485 23.648C131.509 23.56 131.521 23.464 131.521 23.36C131.521 23.264 131.509 23.172 131.485 23.084C131.461 22.996 131.389 22.92 131.269 22.856C131.157 22.784 130.977 22.732 130.729 22.7C130.489 22.66 130.153 22.64 129.721 22.64ZM127.441 26V27.212C127.841 27.252 128.245 27.28 128.653 27.296C129.069 27.312 129.437 27.32 129.757 27.32C130.237 27.32 130.609 27.304 130.873 27.272C131.145 27.232 131.345 27.18 131.473 27.116C131.609 27.044 131.689 26.964 131.713 26.876C131.745 26.788 131.761 26.696 131.761 26.6C131.761 26.52 131.749 26.444 131.725 26.372C131.701 26.292 131.621 26.228 131.485 26.18C131.349 26.124 131.133 26.08 130.837 26.048C130.541 26.016 130.121 26 129.577 26H127.441ZM141.433 29L139.825 26.48C139.393 26.48 138.977 26.476 138.577 26.468C138.177 26.46 137.785 26.424 137.401 26.36V29H135.241V20.96C135.929 20.88 136.649 20.82 137.401 20.78C138.161 20.74 138.905 20.72 139.633 20.72H139.969C140.641 20.72 141.197 20.792 141.637 20.936C142.077 21.072 142.429 21.26 142.693 21.5C142.957 21.74 143.141 22.02 143.245 22.34C143.349 22.66 143.401 23 143.401 23.36V23.84C143.401 24.344 143.301 24.804 143.101 25.22C142.901 25.628 142.545 25.944 142.033 26.168L143.521 28.52V29H141.433ZM139.657 22.64C139.377 22.64 139.029 22.648 138.613 22.664C138.205 22.68 137.801 22.708 137.401 22.748V24.452C137.777 24.5 138.133 24.532 138.469 24.548C138.805 24.556 139.077 24.56 139.285 24.56C139.765 24.56 140.137 24.54 140.401 24.5C140.665 24.452 140.857 24.384 140.977 24.296C141.105 24.208 141.181 24.096 141.205 23.96C141.229 23.824 141.241 23.66 141.241 23.468C141.241 23.364 141.233 23.264 141.217 23.168C141.201 23.064 141.141 22.972 141.037 22.892C140.941 22.812 140.785 22.752 140.569 22.712C140.353 22.664 140.049 22.64 139.657 22.64ZM144.825 24.668C144.825 24.124 144.893 23.612 145.029 23.132C145.165 22.652 145.401 22.236 145.737 21.884C146.081 21.524 146.541 21.24 147.117 21.032C147.693 20.824 148.417 20.72 149.289 20.72H149.721C150.593 20.72 151.317 20.824 151.893 21.032C152.469 21.24 152.925 21.524 153.261 21.884C153.605 22.236 153.845 22.652 153.981 23.132C154.117 23.612 154.185 24.124 154.185 24.668V25.292C154.185 25.836 154.117 26.348 153.981 26.828C153.845 27.308 153.605 27.728 153.261 28.088C152.925 28.44 152.469 28.72 151.893 28.928C151.317 29.136 150.593 29.24 149.721 29.24H149.289C148.417 29.24 147.693 29.136 147.117 28.928C146.541 28.72 146.081 28.44 145.737 28.088C145.401 27.728 145.165 27.308 145.029 26.828C144.893 26.348 144.825 25.836 144.825 25.292V24.668ZM146.985 24.98C146.985 25.284 146.997 25.58 147.021 25.868C147.053 26.148 147.145 26.396 147.297 26.612C147.457 26.828 147.705 27 148.041 27.128C148.385 27.256 148.873 27.32 149.505 27.32C150.137 27.32 150.621 27.256 150.957 27.128C151.301 27 151.549 26.828 151.701 26.612C151.861 26.396 151.953 26.148 151.977 25.868C152.009 25.58 152.025 25.284 152.025 24.98C152.025 24.676 152.009 24.384 151.977 24.104C151.953 23.824 151.861 23.576 151.701 23.36C151.549 23.144 151.301 22.972 150.957 22.844C150.621 22.716 150.137 22.652 149.505 22.652C148.873 22.652 148.385 22.716 148.041 22.844C147.705 22.972 147.457 23.144 147.297 23.36C147.145 23.576 147.053 23.824 147.021 24.104C146.997 24.384 146.985 24.676 146.985 24.98ZM157.909 20.96V24.08H159.289L161.905 20.96H164.017V21.44L161.053 24.98L164.017 28.52V29H161.905L159.385 26H157.909V29H155.749V20.96H157.909ZM173.027 22.88H167.495V24.08H171.827V26H167.495V27.08H173.027V29H165.335V20.96H173.027V22.88ZM180.824 26.12V20.96H182.984V29H180.824L176.612 23.84V29H174.452V20.96H176.612L180.824 26.12ZM191.629 27.32C192.061 27.32 192.397 27.3 192.637 27.26C192.885 27.212 193.069 27.156 193.189 27.092C193.317 27.02 193.397 26.944 193.429 26.864C193.461 26.776 193.477 26.696 193.477 26.624C193.477 26.48 193.441 26.368 193.369 26.288C193.305 26.2 193.197 26.132 193.045 26.084C192.901 26.036 192.705 26.004 192.457 25.988C192.217 25.964 191.925 25.948 191.581 25.94C191.381 25.932 191.145 25.92 190.873 25.904C190.601 25.888 190.321 25.856 190.033 25.808C189.745 25.752 189.461 25.676 189.181 25.58C188.901 25.476 188.649 25.336 188.425 25.16C188.209 24.976 188.033 24.748 187.897 24.476C187.761 24.204 187.693 23.872 187.693 23.48V23.324C187.693 22.98 187.753 22.652 187.873 22.34C188.001 22.02 188.213 21.74 188.509 21.5C188.813 21.26 189.217 21.072 189.721 20.936C190.233 20.792 190.869 20.72 191.629 20.72H192.061C192.613 20.72 193.149 20.756 193.669 20.828C194.189 20.892 194.697 20.988 195.193 21.116V23.096C194.609 22.96 194.029 22.852 193.453 22.772C192.885 22.692 192.305 22.652 191.713 22.652C191.281 22.652 190.941 22.676 190.693 22.724C190.445 22.764 190.257 22.82 190.129 22.892C190.009 22.956 189.933 23.028 189.901 23.108C189.869 23.18 189.853 23.252 189.853 23.324C189.853 23.468 189.885 23.584 189.949 23.672C190.021 23.76 190.133 23.828 190.285 23.876C190.437 23.924 190.633 23.96 190.873 23.984C191.113 24 191.401 24.012 191.737 24.02C191.929 24.028 192.157 24.04 192.421 24.056C192.685 24.064 192.961 24.096 193.249 24.152C193.545 24.2 193.833 24.276 194.113 24.38C194.401 24.484 194.657 24.628 194.881 24.812C195.105 24.988 195.285 25.216 195.421 25.496C195.565 25.768 195.637 26.1 195.637 26.492V26.648C195.637 26.992 195.573 27.32 195.445 27.632C195.325 27.944 195.113 28.22 194.809 28.46C194.505 28.7 194.101 28.888 193.597 29.024C193.093 29.168 192.457 29.24 191.689 29.24H191.257C190.625 29.24 190.009 29.204 189.409 29.132C188.817 29.068 188.233 28.976 187.657 28.856V26.84C188.305 26.984 188.973 27.1 189.661 27.188C190.357 27.276 191.013 27.32 191.629 27.32ZM199.73 29V22.88H196.61V20.96H205.022V22.88H201.89V29H199.73ZM206.09 24.668C206.09 24.124 206.158 23.612 206.294 23.132C206.43 22.652 206.666 22.236 207.002 21.884C207.346 21.524 207.806 21.24 208.382 21.032C208.958 20.824 209.682 20.72 210.554 20.72H210.986C211.858 20.72 212.582 20.824 213.158 21.032C213.734 21.24 214.19 21.524 214.526 21.884C214.87 22.236 215.11 22.652 215.246 23.132C215.382 23.612 215.45 24.124 215.45 24.668V25.292C215.45 25.836 215.382 26.348 215.246 26.828C215.11 27.308 214.87 27.728 214.526 28.088C214.19 28.44 213.734 28.72 213.158 28.928C212.582 29.136 211.858 29.24 210.986 29.24H210.554C209.682 29.24 208.958 29.136 208.382 28.928C207.806 28.72 207.346 28.44 207.002 28.088C206.666 27.728 206.43 27.308 206.294 26.828C206.158 26.348 206.09 25.836 206.09 25.292V24.668ZM208.25 24.98C208.25 25.284 208.262 25.58 208.286 25.868C208.318 26.148 208.41 26.396 208.562 26.612C208.722 26.828 208.97 27 209.306 27.128C209.65 27.256 210.138 27.32 210.77 27.32C211.402 27.32 211.886 27.256 212.222 27.128C212.566 27 212.814 26.828 212.966 26.612C213.126 26.396 213.218 26.148 213.242 25.868C213.274 25.58 213.29 25.284 213.29 24.98C213.29 24.676 213.274 24.384 213.242 24.104C213.218 23.824 213.126 23.576 212.966 23.36C212.814 23.144 212.566 22.972 212.222 22.844C211.886 22.716 211.402 22.652 210.77 22.652C210.138 22.652 209.65 22.716 209.306 22.844C208.97 22.972 208.722 23.144 208.562 23.36C208.41 23.576 208.318 23.824 208.286 24.104C208.262 24.384 208.25 24.676 208.25 24.98ZM223.207 29L221.599 26.48C221.167 26.48 220.751 26.476 220.351 26.468C219.951 26.46 219.559 26.424 219.175 26.36V29H217.015V20.96C217.703 20.88 218.423 20.82 219.175 20.78C219.935 20.74 220.679 20.72 221.407 20.72H221.743C222.415 20.72 222.971 20.792 223.411 20.936C223.851 21.072 224.203 21.26 224.467 21.5C224.731 21.74 224.915 22.02 225.019 22.34C225.123 22.66 225.175 23 225.175 23.36V23.84C225.175 24.344 225.075 24.804 224.875 25.22C224.675 25.628 224.319 25.944 223.807 26.168L225.295 28.52V29H223.207ZM221.431 22.64C221.151 22.64 220.803 22.648 220.387 22.664C219.979 22.68 219.575 22.708 219.175 22.748V24.452C219.551 24.5 219.907 24.532 220.243 24.548C220.579 24.556 220.851 24.56 221.059 24.56C221.539 24.56 221.911 24.54 222.175 24.5C222.439 24.452 222.631 24.384 222.751 24.296C222.879 24.208 222.955 24.096 222.979 23.96C223.003 23.824 223.015 23.66 223.015 23.468C223.015 23.364 223.007 23.264 222.991 23.168C222.975 23.064 222.915 22.972 222.811 22.892C222.715 22.812 222.559 22.752 222.343 22.712C222.127 22.664 221.823 22.64 221.431 22.64ZM234.551 22.88H229.019V24.08H233.351V26H229.019V27.08H234.551V29H226.859V20.96H234.551V22.88Z" fill="black"/>
<path d="M125.444 26L233.828 26V24L125.444 24V26Z" fill="black"/>
</svg>
