<?xml version="1.0" encoding="UTF-8"?>
<svg id="svg1" xmlns="http://www.w3.org/2000/svg" viewBox="0 0 320.86 51">
  <defs>
    <style>
      .cls-1 {
        letter-spacing: 0em;
      }

      .cls-2, .cls-3 {
        isolation: isolate;
      }

      .cls-4 {
        stroke-width: 0px;
      }

      .cls-5 {
        letter-spacing: .01em;
      }

      .cls-6 {
        letter-spacing: .01em;
      }

      .cls-3 {
        font-family: GetVoIPGrotesque, 'GetVoIP Grotesque';
        font-size: 21.33px;
      }

      .cls-7 {
        stroke: #000;
        stroke-width: 1px;
      }

      .cls-8 {
        letter-spacing: 0em;
      }

      .cls-9 {
        letter-spacing: 0em;
      }

      .cls-10 {
        letter-spacing: 0em;
      }
    </style>
  </defs>
  <g id="g32">
    <g id="g22">
      <g id="g1">
        <path id="path1" class="cls-7" d="M6.86,50.21c-.63,0-1.15-.55-1.15-1.22V2.94H1.65c-.63,0-1.15-.55-1.15-1.22S1.01.5,1.65.5h5.21c.63,0,1.15.55,1.15,1.22v47.27c0,.67-.51,1.22-1.15,1.22Z"/>
      </g>
      <g id="g2">
        <path id="path2" class="cls-7" d="M6.86,16.37h-3.81c-.63,0-1.15-.55-1.15-1.22v-5.81c0-.67.51-1.22,1.15-1.22h3.81c.63,0,1.15.55,1.15,1.22v5.81c0,.67-.51,1.22-1.15,1.22ZM4.19,13.94h1.52v-3.38h-1.52v3.38Z"/>
      </g>
      <g id="g3">
        <path id="path3" class="cls-7" d="M6.78,34.88h-3.83c-.63,0-1.15-.55-1.15-1.22v-13.9c0-.67.51-1.22,1.15-1.22h3.81c.63,0,1.15.55,1.15,1.22v13.9c.02.67-.49,1.22-1.13,1.22ZM4.11,32.45h1.52v-11.46h-1.52v11.46Z"/>
      </g>
      <g id="g4">
        <path id="path4" class="cls-7" d="M30.53,50.5h-5.25c-.63,0-1.15-.55-1.15-1.22v-3.65c0-.67.51-1.22,1.15-1.22s1.15.55,1.15,1.22v2.43h2.96v-2.43c0-.67.51-1.22,1.15-1.22s1.15.55,1.15,1.22v3.65c0,.67-.51,1.22-1.15,1.22Z"/>
      </g>
      <g id="g5">
        <path id="path5" class="cls-7" d="M61.46,50.5h-26.6c-.63,0-1.15-.55-1.15-1.22v-3.65c0-.67.51-1.22,1.15-1.22s1.15.55,1.15,1.22v2.43h24.31v-2.43c0-.67.51-1.22,1.15-1.22s1.15.55,1.15,1.22v3.65c0,.67-.51,1.22-1.15,1.22Z"/>
      </g>
      <g id="g6">
        <path id="path6" class="cls-7" d="M92.24,46.49H18.59c-.45,0-.87-.29-1.05-.73l-8.17-20.38c-.12-.29-.12-.63,0-.94L17.52,3.06c.18-.46.59-.76,1.07-.76h73.65c.49,0,.91.31,1.09.82l7.11,21.22c.1.27.08.57,0,.82l-7.11,20.53c-.18.46-.59.8-1.09.8ZM19.34,44.06h72.11l6.67-19.31-6.69-20.03H19.36l-7.7,20.15,7.68,19.19Z"/>
      </g>
      <g id="g7">
        <path id="path7" class="cls-7" d="M99.35,25.96h-.02l-6.87-.15c-.63-.02-1.13-.57-1.13-1.24.02-.67.53-1.2,1.15-1.2h.02l6.87.15c.63.02,1.13.57,1.13,1.24-.02.65-.53,1.2-1.15,1.2Z"/>
      </g>
      <g id="g8">
        <path id="path8" class="cls-7" d="M97.33,43.85h-4.19c-.63,0-1.15-.55-1.15-1.22s.51-1.22,1.15-1.22h3.04v-10.85c0-.67.51-1.22,1.15-1.22s1.15.55,1.15,1.22v12.07c0,.67-.51,1.22-1.15,1.22Z"/>
      </g>
      <g id="g9">
        <path id="path9" class="cls-7" d="M97.33,19.94c-.63,0-1.15-.55-1.15-1.22V7.37h-3.06c-.63,0-1.15-.55-1.15-1.22s.51-1.22,1.15-1.22h4.21c.63,0,1.15.55,1.15,1.22v12.57c0,.67-.51,1.22-1.15,1.22Z"/>
      </g>
      <g id="g12">
        <g id="g10">
          <path id="path10" class="cls-7" d="M76.32,43.28c-.14,0-.3-.02-.43-.08l-10.03-4.3s-.02,0-.04-.02l-1.5-.65c-.28-.13-.51-.36-.63-.65l-4.88-12.2c-.16-.42-.1-.9.16-1.24l1.34-1.76c2.55-3.4,6.83-4.62,10.64-3.02.34.15.57.42.67.8s.04.76-.16,1.05c-.49.73-.83,1.55-.99,2.46h0c-.06.38-.1.73-.1,1.11,0,.57.08,1.13.22,1.68h0c.24.86.63,1.66,1.18,2.33h0c.57.71,1.3,1.28,2.11,1.64h0c.71.31,1.44.46,2.21.46h.24c.89-.04,1.74-.29,2.51-.73.73-.42,1.38-1.03,1.88-1.76.32-.44.87-.61,1.36-.42,2.84,1.22,6.06.36,8.02-2.16l1.24-2.04c.24-.38.63-.59,1.07-.55.41.04.79.31.95.73l.08.19c.12.29.12.63,0,.92l-4.68,12.3c-.12.29-.34.55-.61.67l-11.39,5.14c-.14.06-.3.1-.43.1ZM72.02,38.91l3.75,1.62c-2.21-1.85-3.51-4.68-3.51-7.7,0-.19,0-.4.02-.59-.36-.21-.71-.46-1.05-.73-.39.97-.59,1.97-.59,3,.02,1.53.47,3.09,1.38,4.41ZM74.57,33.1c.1,2.71,1.58,5.16,3.95,6.38.08.04.16.08.22.15l2.01-.9c-2.29-.99-4.17-2.94-5.11-5.48-.36,0-.71-.06-1.07-.15ZM67.16,36.82l1.66.71c-.3-.99-.45-2.02-.45-3.02,0-1.68.39-3.36,1.22-4.87-.22-.31-.39-.65-.55-.99-1.54,1.41-2.41,3.44-2.41,5.58,0,.52.06,1.05.16,1.6l.38.99ZM78.08,33.04c1.18,2.39,3.49,3.95,6.14,3.99.1,0,.18.02.26.04l2.45-1.09.38-.99c-2.84.63-5.82-.21-8.04-2.33-.39.15-.79.27-1.18.38ZM63.19,30.06l1.2,3c.3-2.75,1.68-5.25,3.87-6.88-.08-.44-.1-.88-.12-1.32-2.39.67-4.28,2.62-4.96,5.21ZM81.34,31.29c2.03,1.6,4.72,1.89,7.09.73l.89-2.35c-2.15,1.28-4.74,1.62-7.19.82-.26.27-.51.55-.79.8ZM61.2,25.08l.75,1.89c1.38-2.48,3.75-4.22,6.52-4.68.1-.38.24-.73.38-1.09-2.51-.5-5.09.5-6.73,2.69l-.91,1.2Z"/>
        </g>
        <g id="g11">
          <path id="path11" class="cls-7" d="M84.82,30.92c-1.16,0-2.35-.23-3.49-.73-.34-.15-.57-.44-.67-.8s-.04-.76.18-1.05c.51-.76.87-1.64,1.03-2.56h0c.06-.36.08-.71.08-1.05,0-.55-.06-1.09-.2-1.62h0c-.24-.9-.65-1.74-1.24-2.43-.55-.67-1.26-1.22-2.03-1.55h0c-.71-.34-1.48-.5-2.27-.5h-.3c-.85.04-1.66.29-2.41.71h0c-.77.44-1.44,1.07-1.95,1.83-.3.46-.87.63-1.34.42-2.88-1.2-6.1-.27-8.04,2.29l-1.36,1.76c-.36.46-.99.59-1.46.27-.49-.31-.69-.94-.47-1.51l4.68-12.3c.12-.29.34-.55.61-.67l11.43-5.12c.28-.13.59-.13.87,0l10.31,4.43h.02l1.24.55c.28.13.51.36.63.65l4.8,12.01c.16.38.12.8-.1,1.13l-1.28,2.1s-.04.06-.08.1c-1.8,2.35-4.44,3.65-7.17,3.65ZM83.47,28.33c2.49.52,5.05-.42,6.71-2.56l.93-1.49-.75-1.87c-1.36,2.48-3.71,4.22-6.46,4.7-.12.4-.28.82-.43,1.22ZM84.1,23.38c.06.38.1.78.1,1.15,2.37-.69,4.25-2.64,4.9-5.25l-1.09-2.71c-.32,2.73-1.72,5.18-3.91,6.8ZM82.72,19.79c.24.36.45.73.63,1.13,1.56-1.41,2.45-3.46,2.45-5.63,0-.52-.06-1.05-.16-1.57l-.28-.97-1.95-.84c.32,1.01.47,2.04.47,3.09.02,1.64-.38,3.27-1.17,4.79ZM63.98,17.34l-.99,2.6c2.15-1.3,4.72-1.66,7.19-.9.28-.34.57-.63.89-.92-2.01-1.6-4.72-1.93-7.09-.78ZM80.12,17.29c.32.19.61.4.91.63.38-.94.57-1.93.57-2.94,0-1.57-.47-3.15-1.42-4.49l-3.34-1.43c2.09,1.87,3.3,4.6,3.3,7.54.02.23,0,.46-.02.69ZM66.93,14.21c2.27,0,4.5.9,6.24,2.58.34-.15.69-.27,1.05-.36-1.2-2.39-3.53-3.93-6.16-3.93-.1,0-.22-.02-.32-.04l-2.29,1.03-.34.9c.59-.1,1.2-.19,1.82-.19ZM76.62,16.2c.41.02.83.08,1.22.17-.08-2.71-1.54-5.18-3.91-6.42-.1-.04-.18-.1-.26-.17l-2.23,1.01c2.33.97,4.21,2.9,5.17,5.42h0Z"/>
        </g>
      </g>
      <g id="g14">
        <g id="g13">
          <path id="path12" class="cls-7" d="M33.77,43.11c-.14,0-.3-.02-.43-.08l-11.57-4.97c-.28-.13-.51-.36-.63-.65l-4.88-12.2s0-.02-.02-.04h0c-.02-.06-.04-.13-.06-.19-.04-.21-.04-.42.04-.63,0-.02.02-.04.02-.06l4.66-12.28c.12-.29.34-.55.61-.67l11.47-5.18c.28-.13.59-.13.87,0l10.29,4.43h.02l1.24.55c.28.13.51.36.63.65l4.8,11.99s0,.02.02.04l.08.19c.12.29.12.63,0,.92l-4.68,12.3c-.12.29-.34.55-.61.67l-11.47,5.18c-.08.02-.24.04-.39.04ZM29.49,38.75l3.75,1.62c-2.21-1.85-3.51-4.68-3.51-7.7,0-.19,0-.4.02-.59-.36-.21-.71-.46-1.05-.73-.39.97-.59,1.97-.59,3,0,1.53.47,3.09,1.38,4.41ZM32.04,32.95c.1,2.71,1.58,5.16,3.95,6.38.08.04.16.08.22.15l2.01-.9c-2.29-.99-4.17-2.94-5.11-5.48-.36-.02-.71-.08-1.07-.15ZM24.61,36.65l1.66.71c-.3-.99-.45-2.02-.45-3.02,0-1.68.39-3.36,1.22-4.87-.22-.31-.39-.65-.55-.99-1.54,1.41-2.41,3.44-2.41,5.58,0,.52.06,1.05.16,1.6l.38.99ZM35.53,32.87c1.18,2.39,3.49,3.95,6.14,3.99.1,0,.18.02.26.04l2.45-1.11.38-.99c-2.84.63-5.82-.21-8.04-2.33-.38.17-.77.31-1.18.4ZM20.64,29.89l1.2,3c.3-2.75,1.68-5.25,3.87-6.88-.08-.44-.1-.88-.12-1.32-2.39.67-4.27,2.62-4.96,5.21ZM38.79,31.13c2.03,1.57,4.72,1.89,7.09.73l.89-2.35c-2.15,1.28-4.74,1.62-7.19.82-.24.27-.51.55-.79.8ZM31.42,30.2h0c.79.36,1.62.5,2.47.46h0c.89-.04,1.74-.29,2.51-.73h0c.73-.42,1.38-1.03,1.88-1.76h0c.51-.76.87-1.64,1.03-2.54h0c.06-.36.08-.71.08-1.05,0-.55-.06-1.09-.2-1.62h0c-.24-.9-.65-1.74-1.24-2.43-.55-.67-1.26-1.22-2.03-1.55h0c-.71-.34-1.48-.5-2.27-.5h-.3c-.85.04-1.66.29-2.41.71h0c-.77.44-1.44,1.07-1.95,1.83h0c-.49.73-.83,1.55-.99,2.46h0c-.06.38-.1.73-.1,1.11,0,.57.08,1.11.22,1.66h0c.24.86.63,1.66,1.18,2.33h0c.59.73,1.32,1.28,2.13,1.64ZM40.92,28.17c2.49.52,5.05-.42,6.71-2.56l.93-1.49-.75-1.87c-1.36,2.48-3.71,4.22-6.46,4.7-.1.4-.26.82-.43,1.22ZM18.67,24.93l.75,1.89c1.38-2.48,3.75-4.22,6.52-4.68.1-.38.24-.73.38-1.09-2.51-.5-5.09.5-6.73,2.69l-.91,1.2ZM41.57,23.21c.06.38.1.78.1,1.15,2.37-.69,4.25-2.64,4.9-5.25l-1.09-2.71c-.34,2.73-1.72,5.21-3.91,6.8ZM40.19,19.62c.24.36.45.73.63,1.13,1.56-1.41,2.45-3.46,2.45-5.63,0-.52-.06-1.05-.16-1.57l-.28-.97-1.95-.84c.32,1.01.47,2.04.47,3.09.02,1.64-.38,3.3-1.17,4.79ZM21.45,17.19l-.99,2.6c2.15-1.3,4.72-1.66,7.19-.9.28-.34.57-.63.89-.92-2.03-1.62-4.72-1.93-7.09-.78ZM37.58,17.13c.32.19.61.4.91.63.38-.94.57-1.93.57-2.94,0-1.57-.47-3.15-1.42-4.49l-3.34-1.41c2.09,1.87,3.3,4.6,3.3,7.54,0,.21,0,.44-.02.67ZM24.37,14.06c2.27,0,4.5.9,6.24,2.58.34-.15.69-.27,1.05-.36-1.2-2.39-3.53-3.93-6.16-3.93-.1,0-.22-.02-.32-.04l-2.29,1.03-.34.9c.61-.13,1.22-.19,1.82-.19ZM34.09,16.03c.41.02.83.08,1.22.17-.08-2.71-1.54-5.18-3.91-6.42-.1-.04-.18-.1-.26-.17l-2.23,1.01c2.33.99,4.21,2.9,5.17,5.42Z"/>
        </g>
      </g>
      <g id="g15">
        <path id="path14" class="cls-7" d="M47.46,46.49c-.14,0-.3-.02-.43-.08-.59-.25-.87-.97-.63-1.6l7.68-20.24L45.84,3.99c-.26-.61.02-1.34.61-1.6.57-.27,1.26.02,1.5.65l8.41,21.05c.12.29.12.63,0,.92l-7.84,20.7c-.2.48-.61.78-1.07.78Z"/>
      </g>
      <g id="g16">
        <path id="path15" class="cls-7" d="M62.62,18.62c-.45,0-.87-.27-1.05-.73l-5.55-13.9c-.26-.61.02-1.34.61-1.6.59-.27,1.26.02,1.5.65l5.55,13.9c.26.61-.02,1.34-.61,1.6-.16.06-.32.08-.45.08Z"/>
      </g>
      <g id="g17">
        <path id="path16" class="cls-7" d="M57.61,46.49c-.14,0-.3-.02-.43-.08-.59-.25-.87-.97-.63-1.6l5.02-13.2c.24-.63.91-.92,1.5-.67s.87.97.63,1.6l-5.02,13.2c-.18.46-.61.76-1.07.76Z"/>
      </g>
      <g id="g18">
        <path id="path17" class="cls-7" d="M17.09,7.37H6.86c-.63,0-1.15-.55-1.15-1.22s.51-1.22,1.15-1.22h10.23c.63,0,1.15.55,1.15,1.22s-.51,1.22-1.15,1.22Z"/>
      </g>
      <g id="g19">
        <path id="path18" class="cls-7" d="M17.05,43.85H6.86c-.63,0-1.15-.55-1.15-1.22s.51-1.22,1.15-1.22h10.19c.63,0,1.15.55,1.15,1.22s-.51,1.22-1.15,1.22Z"/>
      </g>
      <g id="g20">
        <path id="path19" class="cls-7" d="M49.92,25.8c-.63,0-1.15-.55-1.15-1.22s.51-1.22,1.15-1.22l5.39-.02h0c.63,0,1.15.55,1.15,1.22s-.51,1.22-1.15,1.22l-5.39.02Z"/>
      </g>
      <g id="g21">
        <path id="path20" class="cls-7" d="M17.34,26.11h-6.93c-.63,0-1.15-.55-1.15-1.22s.51-1.22,1.15-1.22h6.93c.63,0,1.15.55,1.15,1.22s-.51,1.22-1.15,1.22Z"/>
      </g>
    </g>
    <rect class="cls-4" x="85.66" y="24.98" width="50" height="1" transform="translate(136.14 -85.17) rotate(90)"/>
    <g>
      <g id="text32" class="cls-2">
        <text class="cls-3" transform="translate(124.04 33.33)"><tspan x="0" y="0">B</tspan><tspan class="cls-1" x="17.71" y="0">R</tspan><tspan x="34.97" y="0">O</tspan><tspan class="cls-6" x="54.17" y="0">K</tspan><tspan class="cls-9" x="71.21" y="0">EN </tspan><tspan class="cls-10" x="111.12" y="0">S</tspan><tspan class="cls-8" x="127.89" y="0">T</tspan><tspan x="143.89" y="0">O</tspan><tspan class="cls-5" x="163.09" y="0">R</tspan><tspan x="180.61" y="0">E</tspan></text>
      </g>
      <rect class="cls-4" x="125.54" y="24.58" width="194.28" height="3.41" transform="translate(445.35 52.57) rotate(-180)"/>
    </g>
  </g>
</svg>