<svg width="326" height="59" viewBox="0 0 326 59" fill="none" xmlns="http://www.w3.org/2000/svg">
<g filter="url(#filter0_d_112_52)">
<path d="M10.8844 50.21C10.2521 50.21 9.73028 49.66 9.73028 48.99V2.94H5.65586C5.02362 2.94 4.50177 2.39 4.50177 1.72C4.50177 1.05 5.01358 0.5 5.65586 0.5H10.8844C11.5166 0.5 12.0385 1.05 12.0385 1.72V48.99C12.0385 49.66 11.5266 50.21 10.8844 50.21Z" fill="black" stroke="black"/>
<path d="M10.8844 16.3701H7.06082C6.42859 16.3701 5.90674 15.8201 5.90674 15.1501V9.34012C5.90674 8.67012 6.41855 8.12012 7.06082 8.12012H10.8844C11.5166 8.12012 12.0384 8.67012 12.0384 9.34012V15.1501C12.0384 15.8201 11.5266 16.3701 10.8844 16.3701ZM8.20487 13.9401H9.73028V10.5601H8.20487V13.9401Z" fill="black" stroke="black"/>
<path d="M10.8041 34.88H6.96048C6.32824 34.88 5.8064 34.33 5.8064 33.66V19.76C5.8064 19.09 6.31821 18.54 6.96048 18.54H10.784C11.4163 18.54 11.9381 19.09 11.9381 19.76V33.66C11.9582 34.33 11.4464 34.88 10.8041 34.88ZM8.1246 32.45H9.65V20.99H8.1246V32.45Z" fill="black" stroke="black"/>
<path d="M34.6385 50.4999H29.3698C28.7376 50.4999 28.2157 49.9499 28.2157 49.2799V45.6299C28.2157 44.9599 28.7275 44.4099 29.3698 44.4099C30.0121 44.4099 30.5239 44.9599 30.5239 45.6299V48.0599H33.4944V45.6299C33.4944 44.9599 34.0062 44.4099 34.6485 44.4099C35.2908 44.4099 35.8026 44.9599 35.8026 45.6299V49.2799C35.8026 49.9499 35.2908 50.4999 34.6485 50.4999H34.6385Z" fill="black" stroke="black"/>
<path d="M65.6784 50.4999H38.9839C38.3516 50.4999 37.8298 49.9499 37.8298 49.2799V45.6299C37.8298 44.9599 38.3416 44.4099 38.9839 44.4099C39.6261 44.4099 40.1379 44.9599 40.1379 45.6299V48.0599H64.5343V45.6299C64.5343 44.9599 65.0461 44.4099 65.6884 44.4099C66.3307 44.4099 66.8425 44.9599 66.8425 45.6299V49.2799C66.8425 49.9499 66.3307 50.4999 65.6884 50.4999H65.6784Z" fill="black" stroke="black"/>
<path d="M96.5677 46.4901H22.656C22.2044 46.4901 21.7829 46.2 21.6023 45.76L13.4033 25.38C13.2829 25.09 13.2829 24.7501 13.4033 24.4401L21.5822 3.06005C21.7629 2.60005 22.1743 2.30005 22.656 2.30005H96.5677C97.0595 2.30005 97.481 2.61005 97.6616 3.12005L104.797 24.34C104.897 24.61 104.877 24.91 104.797 25.16L97.6616 45.69C97.481 46.15 97.0695 46.4901 96.5677 46.4901ZM23.4087 44.0601H95.7749L102.469 24.75L95.7548 4.72005H23.4288L15.7014 24.8701L23.4087 44.0601Z" fill="black" stroke="black"/>
<path d="M103.703 25.9601H103.683L96.7885 25.8101C96.1563 25.7901 95.6545 25.2401 95.6545 24.5701C95.6746 23.9001 96.1864 23.3701 96.8086 23.3701H96.8286L103.723 23.5201C104.355 23.5401 104.857 24.0901 104.857 24.7601C104.837 25.4101 104.325 25.9601 103.703 25.9601Z" fill="black" stroke="black"/>
<path d="M101.676 43.8501H97.4709C96.8387 43.8501 96.3168 43.3001 96.3168 42.6301C96.3168 41.9601 96.8286 41.4101 97.4709 41.4101H100.522V30.5601C100.522 29.8901 101.034 29.3401 101.676 29.3401C102.318 29.3401 102.83 29.8901 102.83 30.5601V42.6301C102.83 43.3001 102.318 43.8501 101.676 43.8501Z" fill="black" stroke="black"/>
<path d="M101.676 19.9399C101.044 19.9399 100.522 19.3899 100.522 18.7199V7.36993H97.4508C96.8186 7.36993 96.2968 6.81993 96.2968 6.14993C96.2968 5.47993 96.8086 4.92993 97.4508 4.92993H101.676C102.308 4.92993 102.83 5.47993 102.83 6.14993V18.7199C102.83 19.3899 102.318 19.9399 101.676 19.9399Z" fill="black" stroke="black"/>
<path d="M80.5911 43.2798C80.4506 43.2798 80.2901 43.2598 80.1596 43.1998L70.094 38.8998C70.094 38.8998 70.0739 38.8998 70.0538 38.8798L68.5485 38.2298C68.2675 38.0998 68.0367 37.8698 67.9163 37.5798L63.0189 25.3798C62.8584 24.9598 62.9186 24.4798 63.1795 24.1398L64.5243 22.3798C67.0833 18.9798 71.3785 17.7598 75.2021 19.3598C75.5433 19.5098 75.7741 19.7798 75.8744 20.1598C75.9748 20.5398 75.9146 20.9198 75.7139 21.2098C75.2221 21.9398 74.8809 22.7598 74.7204 23.6698C74.6601 24.0498 74.62 24.3998 74.62 24.7798C74.62 25.3498 74.7003 25.9098 74.8408 26.4598C75.0816 27.3198 75.473 28.1198 76.025 28.7898C76.597 29.4998 77.3296 30.0698 78.1425 30.4298C78.855 30.7398 79.5876 30.8898 80.3603 30.8898H80.6012C81.4943 30.8498 82.3474 30.5998 83.1201 30.1598C83.8527 29.7398 84.505 29.1298 85.0068 28.3998C85.3279 27.9598 85.8799 27.7898 86.3716 27.9798C89.2217 29.1998 92.4531 28.3398 94.4201 25.8198L95.6645 23.7798C95.9054 23.3998 96.2968 23.1898 96.7383 23.2298C97.1498 23.2698 97.5311 23.5398 97.6917 23.9598L97.772 24.1498C97.8924 24.4398 97.8924 24.7798 97.772 25.0698L93.0753 37.3698C92.9549 37.6598 92.7341 37.9198 92.4632 38.0398L81.0327 43.1798C80.8922 43.2398 80.7316 43.2798 80.6012 43.2798H80.5911ZM76.2759 38.9098L80.0392 40.5298C77.8213 38.6798 76.5167 35.8498 76.5167 32.8298C76.5167 32.6398 76.5167 32.4298 76.5368 32.2398C76.1755 32.0298 75.8243 31.7798 75.4831 31.5098C75.0917 32.4798 74.891 33.4798 74.891 34.5098C74.911 36.0398 75.3626 37.5998 76.2759 38.9198V38.9098ZM78.8349 33.0998C78.9353 35.8098 80.4205 38.2598 82.799 39.4798C82.8792 39.5198 82.9595 39.5598 83.0197 39.6298L85.0369 38.7298C82.7387 37.7398 80.8521 35.7898 79.9087 33.2498C79.5474 33.2498 79.1962 33.1898 78.8349 33.0998ZM71.3986 36.8198L73.0645 37.5298C72.7634 36.5398 72.6129 35.5098 72.6129 34.5098C72.6129 32.8298 73.0043 31.1498 73.8372 29.6398C73.6164 29.3298 73.4458 28.9898 73.2853 28.6498C71.7398 30.0598 70.8667 32.0898 70.8667 34.2298C70.8667 34.7498 70.9269 35.2798 71.0273 35.8298L71.4086 36.8198H71.3986ZM82.3574 33.0398C83.5416 35.4298 85.8598 36.9898 88.5192 37.0298C88.6196 37.0298 88.6999 37.0498 88.7801 37.0698L91.2388 35.9798L91.6202 34.9898C88.7701 35.6198 85.7795 34.7798 83.5516 32.6598C83.1602 32.8098 82.7588 32.9298 82.3674 33.0398H82.3574ZM67.4145 30.0598L68.6188 33.0598C68.9198 30.3098 70.3047 27.8098 72.5025 26.1798C72.4222 25.7398 72.4021 25.2998 72.3821 24.8598C69.9836 25.5298 68.0869 27.4798 67.4045 30.0698L67.4145 30.0598ZM85.629 31.2898C87.6662 32.8898 90.3657 33.1798 92.7442 32.0198L93.6373 29.6698C91.4797 30.9498 88.8805 31.2898 86.4218 30.4898C86.1609 30.7598 85.91 31.0398 85.629 31.2898ZM65.4174 25.0798L66.1701 26.9698C67.555 24.4898 69.9334 22.7498 72.7133 22.2898C72.8136 21.9098 72.9541 21.5598 73.0946 21.1998C70.5757 20.6998 67.9865 21.6998 66.3407 23.8898L65.4275 25.0898L65.4174 25.0798Z" fill="black" stroke="black"/>
<path d="M89.1213 30.9199C87.9572 30.9199 86.763 30.6899 85.6189 30.1899C85.2777 30.0399 85.0469 29.7499 84.9466 29.3899C84.8462 29.0299 84.9064 28.6299 85.1272 28.3399C85.639 27.5799 86.0003 26.6999 86.1609 25.7799C86.2211 25.4199 86.2411 25.0699 86.2411 24.7299C86.2411 24.1799 86.1809 23.6399 86.0404 23.1099C85.7996 22.2099 85.3881 21.3699 84.796 20.6799C84.2441 20.0099 83.5315 19.4599 82.7588 19.1299C82.0463 18.7899 81.2736 18.6299 80.4807 18.6299H80.1797C79.3267 18.6699 78.5138 18.9199 77.7611 19.3399C76.9884 19.7799 76.316 20.4099 75.8042 21.1699C75.5031 21.6299 74.9311 21.7999 74.4594 21.5899C71.5692 20.3899 68.3378 21.3199 66.3909 23.8799L65.026 25.6399C64.6648 26.0999 64.0325 26.2299 63.5608 25.9099C63.0691 25.5999 62.8684 24.9699 63.0892 24.3999L67.7858 12.0999C67.9062 11.8099 68.127 11.5499 68.398 11.4299L79.8686 6.3099C80.1496 6.1799 80.4607 6.1799 80.7417 6.3099L91.0883 10.7399H91.1084L92.3528 11.2899C92.6338 11.4199 92.8646 11.6499 92.985 11.9399L97.8021 23.9499C97.9626 24.3299 97.9225 24.7499 97.7017 25.0799L96.4172 27.1799C96.4172 27.1799 96.377 27.2399 96.3369 27.2799C94.5305 29.6299 91.8811 30.9299 89.1414 30.9299L89.1213 30.9199ZM87.7665 28.3299C90.2654 28.8499 92.8345 27.9099 94.5004 25.7699L95.4337 24.2799L94.681 22.4099C93.3162 24.8899 90.9578 26.6299 88.1981 27.1099C88.0776 27.5099 87.9171 27.9299 87.7665 28.3299ZM88.3988 23.3799C88.459 23.7599 88.4991 24.1599 88.4991 24.5299C90.8775 23.8399 92.7642 21.8899 93.4165 19.2799L92.3227 16.5699C92.0015 19.2999 90.5966 21.7499 88.3988 23.3699V23.3799ZM87.0139 19.7899C87.2547 20.1499 87.4655 20.5199 87.6461 20.9199C89.2117 19.5099 90.1048 17.4599 90.1048 15.2899C90.1048 14.7699 90.0446 14.2399 89.9442 13.7199L89.6633 12.7499L87.7063 11.9099C88.0275 12.9199 88.178 13.9499 88.178 14.9999C88.1981 16.6399 87.7966 18.2699 87.0038 19.7899H87.0139ZM68.2073 17.3399L67.2138 19.9399C69.3714 18.6399 71.9505 18.2799 74.4293 19.0399C74.7103 18.6999 75.0013 18.4099 75.3225 18.1199C73.3053 16.5199 70.5857 16.1899 68.2073 17.3399ZM84.4046 17.2899C84.7258 17.4799 85.0168 17.6899 85.3179 17.9199C85.6992 16.9799 85.8899 15.9899 85.8899 14.9799C85.8899 13.4099 85.4182 11.8299 84.4648 10.4899L81.113 9.0599C83.2104 10.9299 84.4247 13.6599 84.4247 16.5999C84.4448 16.8299 84.4247 17.0599 84.4046 17.2899ZM71.1678 14.2099C73.4458 14.2099 75.6838 15.1099 77.4299 16.7899C77.7712 16.6399 78.1224 16.5199 78.4837 16.4299C77.2794 14.0399 74.9411 12.4999 72.3018 12.4999C72.2014 12.4999 72.081 12.4799 71.9807 12.4599L69.6825 13.4899L69.3413 14.3899C69.9334 14.2899 70.5456 14.1999 71.1678 14.1999V14.2099ZM80.8922 16.1999C81.3037 16.2199 81.7251 16.2799 82.1165 16.3699C82.0362 13.6599 80.5711 11.1899 78.1926 9.9499C78.0923 9.9099 78.012 9.8499 77.9317 9.7799L75.6938 10.7899C78.0321 11.7599 79.9188 13.6899 80.8822 16.2099L80.8922 16.1999Z" fill="black" stroke="black"/>
<path d="M37.89 43.11C37.7495 43.11 37.5889 43.09 37.4585 43.03L25.8473 38.06C25.5664 37.93 25.3355 37.7 25.2151 37.41L20.3178 25.21C20.3178 25.21 20.3178 25.19 20.2977 25.17C20.2776 25.11 20.2576 25.04 20.2375 24.98C20.1973 24.77 20.1973 24.56 20.2776 24.35C20.2776 24.33 20.2977 24.31 20.2977 24.29L24.9743 12.01C25.0947 11.72 25.3155 11.46 25.5864 11.34L37.0972 6.16C37.3782 6.03 37.6893 6.03 37.9703 6.16L48.2968 10.59H48.3169L49.5613 11.14C49.8423 11.27 50.0731 11.5 50.1935 11.79L55.0106 23.78C55.0106 23.78 55.0106 23.8 55.0307 23.82L55.111 24.01C55.2314 24.3 55.2314 24.64 55.111 24.93L50.4143 37.23C50.2939 37.52 50.0731 37.78 49.8022 37.9L38.2914 43.08C38.2111 43.1 38.0506 43.12 37.9 43.12L37.89 43.11ZM33.5948 38.75L37.3581 40.37C35.1402 38.52 33.8356 35.69 33.8356 32.67C33.8356 32.48 33.8356 32.27 33.8557 32.08C33.4944 31.87 33.1432 31.62 32.802 31.35C32.4106 32.32 32.2099 33.32 32.2099 34.35C32.2099 35.88 32.6815 37.44 33.5948 38.76V38.75ZM36.1538 32.95C36.2542 35.66 37.7395 38.11 40.1179 39.33C40.1982 39.37 40.2784 39.41 40.3387 39.48L42.3558 38.58C40.0577 37.59 38.171 35.64 37.2276 33.1C36.8664 33.08 36.5151 33.02 36.1538 32.95ZM28.6974 36.65L30.3633 37.36C30.0623 36.37 29.9117 35.34 29.9117 34.34C29.9117 32.66 30.3031 30.98 31.1361 29.47C30.9153 29.16 30.7447 28.82 30.5841 28.48C29.0386 29.89 28.1656 31.92 28.1656 34.06C28.1656 34.58 28.2258 35.11 28.3261 35.66L28.7075 36.65H28.6974ZM39.6562 32.87C40.8404 35.26 43.1586 36.82 45.818 36.86C45.9184 36.86 45.9987 36.88 46.079 36.9L48.5377 35.79L48.919 34.8C46.0689 35.43 43.0784 34.59 40.8505 32.47C40.4691 32.64 40.0777 32.78 39.6663 32.87H39.6562ZM24.7133 29.89L25.9176 32.89C26.2187 30.14 27.6036 27.64 29.8013 26.01C29.7211 25.57 29.701 25.13 29.6809 24.69C27.2824 25.36 25.3957 27.31 24.7033 29.9L24.7133 29.89ZM42.9278 31.13C44.965 32.7 47.6646 33.02 50.043 31.86L50.9362 29.51C48.7785 30.79 46.1793 31.13 43.7206 30.33C43.4798 30.6 43.2088 30.88 42.9278 31.13ZM35.5316 30.2C36.3244 30.56 37.1574 30.7 38.0104 30.66C38.9036 30.62 39.7566 30.37 40.5293 29.93C41.2619 29.51 41.9142 28.9 42.416 28.17C42.9278 27.41 43.2891 26.53 43.4497 25.63C43.5099 25.27 43.5299 24.92 43.5299 24.58C43.5299 24.03 43.4697 23.49 43.3292 22.96C43.0884 22.06 42.6769 21.22 42.0848 20.53C41.5329 19.86 40.8204 19.31 40.0476 18.98C39.3351 18.64 38.5624 18.48 37.7696 18.48H37.4685C36.6155 18.52 35.8026 18.77 35.0499 19.19C34.2772 19.63 33.6048 20.26 33.093 21.02C32.6013 21.75 32.2601 22.57 32.0995 23.48C32.0393 23.86 31.9991 24.21 31.9991 24.59C31.9991 25.16 32.0794 25.7 32.2199 26.25C32.4608 27.11 32.8521 27.91 33.4041 28.58C33.9962 29.31 34.7288 29.86 35.5417 30.22L35.5316 30.2ZM45.0654 28.17C47.5642 28.69 50.1333 27.75 51.7992 25.61L52.7325 24.12L51.9799 22.25C50.615 24.73 48.2567 26.47 45.4969 26.95C45.3966 27.35 45.236 27.77 45.0654 28.17ZM22.7363 24.93L23.489 26.82C24.8739 24.34 27.2523 22.6 30.0322 22.14C30.1325 21.76 30.273 21.41 30.4135 21.05C27.8946 20.55 25.3054 21.55 23.6596 23.74L22.7464 24.94L22.7363 24.93ZM45.7177 23.21C45.7779 23.59 45.818 23.99 45.818 24.36C48.1965 23.67 50.0832 21.72 50.7355 19.11L49.6416 16.4C49.3004 19.13 47.9155 21.61 45.7177 23.2V23.21ZM44.3328 19.62C44.5736 19.98 44.7844 20.35 44.965 20.75C46.5306 19.34 47.4237 17.29 47.4237 15.12C47.4237 14.6 47.3635 14.07 47.2632 13.55L46.9822 12.58L45.0252 11.74C45.3464 12.75 45.4969 13.78 45.4969 14.83C45.517 16.47 45.1156 18.13 44.3228 19.62H44.3328ZM25.5262 17.19L24.5327 19.79C26.6903 18.49 29.2695 18.13 31.7482 18.89C32.0292 18.55 32.3203 18.26 32.6414 17.97C30.6042 16.35 27.9046 16.04 25.5262 17.19ZM41.7135 17.13C42.0347 17.32 42.3257 17.53 42.6268 17.76C43.0081 16.82 43.1988 15.83 43.1988 14.82C43.1988 13.25 42.7271 11.67 41.7737 10.33L38.4219 8.92C40.5193 10.79 41.7336 13.52 41.7336 16.46C41.7336 16.67 41.7336 16.9 41.7135 17.13ZM28.4566 14.06C30.7347 14.06 32.9726 14.96 34.7188 16.64C35.06 16.49 35.4112 16.37 35.7725 16.28C34.5682 13.89 32.2299 12.35 29.5906 12.35C29.4902 12.35 29.3698 12.33 29.2695 12.31L26.9713 13.34L26.6301 14.24C27.2423 14.11 27.8545 14.05 28.4566 14.05V14.06ZM38.2111 16.03C38.6226 16.05 39.0441 16.11 39.4355 16.2C39.3552 13.49 37.89 11.02 35.5116 9.78C35.4112 9.74 35.3309 9.68 35.2506 9.61L33.0127 10.62C35.351 11.61 37.2377 13.52 38.2011 16.04L38.2111 16.03Z" fill="black" stroke="black"/>
<path d="M51.6286 46.49C51.4881 46.49 51.3276 46.47 51.1971 46.41C50.605 46.16 50.324 45.44 50.5649 44.81L58.2721 24.57L50.0029 3.99002C49.7419 3.38002 50.0229 2.65002 50.615 2.39002C51.1871 2.12002 51.8795 2.41002 52.1204 3.04002L60.5602 24.09C60.6807 24.38 60.6807 24.72 60.5602 25.01L52.6924 45.71C52.4917 46.19 52.0802 46.49 51.6186 46.49H51.6286Z" fill="black" stroke="black"/>
<path d="M66.8425 18.62C66.3909 18.62 65.9694 18.35 65.7887 17.89L60.219 3.99002C59.9581 3.38002 60.2391 2.65002 60.8312 2.39002C61.4233 2.12002 62.0957 2.41002 62.3365 3.04002L67.9062 16.94C68.1672 17.55 67.8862 18.28 67.2941 18.54C67.1335 18.6 66.9729 18.62 66.8425 18.62Z" fill="black" stroke="black"/>
<path d="M61.8147 46.49C61.6742 46.49 61.5136 46.47 61.3832 46.41C60.7911 46.16 60.5101 45.44 60.7509 44.81L65.7888 31.61C66.0296 30.98 66.702 30.69 67.2941 30.94C67.8862 31.19 68.1672 31.91 67.9263 32.54L62.8885 45.74C62.7079 46.2 62.2763 46.5 61.8147 46.5V46.49Z" fill="black" stroke="black"/>
<path d="M21.1507 7.36993H10.8844C10.2521 7.36993 9.73029 6.81993 9.73029 6.14993C9.73029 5.47993 10.2421 4.92993 10.8844 4.92993H21.1507C21.783 4.92993 22.3048 5.47993 22.3048 6.14993C22.3048 6.81993 21.793 7.36993 21.1507 7.36993Z" fill="black" stroke="black"/>
<path d="M21.1106 43.8499H10.8844C10.2521 43.8499 9.73029 43.2999 9.73029 42.6299C9.73029 41.9599 10.2421 41.4099 10.8844 41.4099H21.1106C21.7428 41.4099 22.2647 41.9599 22.2647 42.6299C22.2647 43.2999 21.7529 43.8499 21.1106 43.8499Z" fill="black" stroke="black"/>
<path d="M54.0974 25.8001C53.4651 25.8001 52.9433 25.2501 52.9433 24.5801C52.9433 23.9101 53.4551 23.3601 54.0974 23.3601L59.5065 23.3401C60.1387 23.3401 60.6606 23.8901 60.6606 24.5601C60.6606 25.2301 60.1488 25.7801 59.5065 25.7801L54.0974 25.8001Z" fill="black" stroke="black"/>
<path d="M21.4016 26.1099H14.447C13.8148 26.1099 13.2929 25.5599 13.2929 24.8899C13.2929 24.2199 13.8047 23.6699 14.447 23.6699H21.4016C22.0339 23.6699 22.5557 24.2199 22.5557 24.8899C22.5557 25.5599 22.0439 26.1099 21.4016 26.1099Z" fill="black" stroke="black"/>
<path d="M115.555 50.49V0.48999L114.551 0.48999V50.49H115.555Z" fill="black"/>
<path d="M129.281 20.96C129.969 20.88 130.689 20.82 131.441 20.78C132.201 20.74 132.945 20.72 133.673 20.72H134.009C134.681 20.72 135.237 20.784 135.677 20.912C136.117 21.04 136.469 21.212 136.733 21.428C136.997 21.644 137.181 21.9 137.285 22.196C137.389 22.484 137.441 22.792 137.441 23.12V23.36C137.441 23.712 137.337 24.032 137.129 24.32C136.921 24.608 136.549 24.824 136.013 24.968C136.325 25.04 136.589 25.132 136.805 25.244C137.021 25.356 137.193 25.484 137.321 25.628C137.449 25.772 137.541 25.928 137.597 26.096C137.653 26.256 137.681 26.424 137.681 26.6V26.84C137.681 27.168 137.625 27.48 137.513 27.776C137.401 28.064 137.205 28.316 136.925 28.532C136.645 28.748 136.269 28.92 135.797 29.048C135.325 29.176 134.729 29.24 134.009 29.24H133.673C132.945 29.24 132.201 29.22 131.441 29.18C130.689 29.14 129.969 29.08 129.281 29V20.96ZM133.721 22.64C133.425 22.64 133.069 22.648 132.653 22.664C132.245 22.68 131.841 22.708 131.441 22.748V24.08H133.577C134.065 24.08 134.441 24.064 134.705 24.032C134.969 23.992 135.161 23.94 135.281 23.876C135.401 23.812 135.469 23.736 135.485 23.648C135.509 23.56 135.521 23.464 135.521 23.36C135.521 23.264 135.509 23.172 135.485 23.084C135.461 22.996 135.389 22.92 135.269 22.856C135.157 22.784 134.977 22.732 134.729 22.7C134.489 22.66 134.153 22.64 133.721 22.64ZM131.441 26V27.212C131.841 27.252 132.245 27.28 132.653 27.296C133.069 27.312 133.437 27.32 133.757 27.32C134.237 27.32 134.609 27.304 134.873 27.272C135.145 27.232 135.345 27.18 135.473 27.116C135.609 27.044 135.689 26.964 135.713 26.876C135.745 26.788 135.761 26.696 135.761 26.6C135.761 26.52 135.749 26.444 135.725 26.372C135.701 26.292 135.621 26.228 135.485 26.18C135.349 26.124 135.133 26.08 134.837 26.048C134.541 26.016 134.121 26 133.577 26H131.441ZM145.433 29L143.825 26.48C143.393 26.48 142.977 26.476 142.577 26.468C142.177 26.46 141.785 26.424 141.401 26.36V29H139.241V20.96C139.929 20.88 140.649 20.82 141.401 20.78C142.161 20.74 142.905 20.72 143.633 20.72H143.969C144.641 20.72 145.197 20.792 145.637 20.936C146.077 21.072 146.429 21.26 146.693 21.5C146.957 21.74 147.141 22.02 147.245 22.34C147.349 22.66 147.401 23 147.401 23.36V23.84C147.401 24.344 147.301 24.804 147.101 25.22C146.901 25.628 146.545 25.944 146.033 26.168L147.521 28.52V29H145.433ZM143.657 22.64C143.377 22.64 143.029 22.648 142.613 22.664C142.205 22.68 141.801 22.708 141.401 22.748V24.452C141.777 24.5 142.133 24.532 142.469 24.548C142.805 24.556 143.077 24.56 143.285 24.56C143.765 24.56 144.137 24.54 144.401 24.5C144.665 24.452 144.857 24.384 144.977 24.296C145.105 24.208 145.181 24.096 145.205 23.96C145.229 23.824 145.241 23.66 145.241 23.468C145.241 23.364 145.233 23.264 145.217 23.168C145.201 23.064 145.141 22.972 145.037 22.892C144.941 22.812 144.785 22.752 144.569 22.712C144.353 22.664 144.049 22.64 143.657 22.64ZM148.825 24.668C148.825 24.124 148.893 23.612 149.029 23.132C149.165 22.652 149.401 22.236 149.737 21.884C150.081 21.524 150.541 21.24 151.117 21.032C151.693 20.824 152.417 20.72 153.289 20.72H153.721C154.593 20.72 155.317 20.824 155.893 21.032C156.469 21.24 156.925 21.524 157.261 21.884C157.605 22.236 157.845 22.652 157.981 23.132C158.117 23.612 158.185 24.124 158.185 24.668V25.292C158.185 25.836 158.117 26.348 157.981 26.828C157.845 27.308 157.605 27.728 157.261 28.088C156.925 28.44 156.469 28.72 155.893 28.928C155.317 29.136 154.593 29.24 153.721 29.24H153.289C152.417 29.24 151.693 29.136 151.117 28.928C150.541 28.72 150.081 28.44 149.737 28.088C149.401 27.728 149.165 27.308 149.029 26.828C148.893 26.348 148.825 25.836 148.825 25.292V24.668ZM150.985 24.98C150.985 25.284 150.997 25.58 151.021 25.868C151.053 26.148 151.145 26.396 151.297 26.612C151.457 26.828 151.705 27 152.041 27.128C152.385 27.256 152.873 27.32 153.505 27.32C154.137 27.32 154.621 27.256 154.957 27.128C155.301 27 155.549 26.828 155.701 26.612C155.861 26.396 155.953 26.148 155.977 25.868C156.009 25.58 156.025 25.284 156.025 24.98C156.025 24.676 156.009 24.384 155.977 24.104C155.953 23.824 155.861 23.576 155.701 23.36C155.549 23.144 155.301 22.972 154.957 22.844C154.621 22.716 154.137 22.652 153.505 22.652C152.873 22.652 152.385 22.716 152.041 22.844C151.705 22.972 151.457 23.144 151.297 23.36C151.145 23.576 151.053 23.824 151.021 24.104C150.997 24.384 150.985 24.676 150.985 24.98ZM161.909 20.96V24.08H163.289L165.905 20.96H168.017V21.44L165.053 24.98L168.017 28.52V29H165.905L163.385 26H161.909V29H159.749V20.96H161.909ZM177.027 22.88H171.495V24.08H175.827V26H171.495V27.08H177.027V29H169.335V20.96H177.027V22.88ZM184.824 26.12V20.96H186.984V29H184.824L180.612 23.84V29H178.452V20.96H180.612L184.824 26.12ZM195.629 27.32C196.061 27.32 196.397 27.3 196.637 27.26C196.885 27.212 197.069 27.156 197.189 27.092C197.317 27.02 197.397 26.944 197.429 26.864C197.461 26.776 197.477 26.696 197.477 26.624C197.477 26.48 197.441 26.368 197.369 26.288C197.305 26.2 197.197 26.132 197.045 26.084C196.901 26.036 196.705 26.004 196.457 25.988C196.217 25.964 195.925 25.948 195.581 25.94C195.381 25.932 195.145 25.92 194.873 25.904C194.601 25.888 194.321 25.856 194.033 25.808C193.745 25.752 193.461 25.676 193.181 25.58C192.901 25.476 192.649 25.336 192.425 25.16C192.209 24.976 192.033 24.748 191.897 24.476C191.761 24.204 191.693 23.872 191.693 23.48V23.324C191.693 22.98 191.753 22.652 191.873 22.34C192.001 22.02 192.213 21.74 192.509 21.5C192.813 21.26 193.217 21.072 193.721 20.936C194.233 20.792 194.869 20.72 195.629 20.72H196.061C196.613 20.72 197.149 20.756 197.669 20.828C198.189 20.892 198.697 20.988 199.193 21.116V23.096C198.609 22.96 198.029 22.852 197.453 22.772C196.885 22.692 196.305 22.652 195.713 22.652C195.281 22.652 194.941 22.676 194.693 22.724C194.445 22.764 194.257 22.82 194.129 22.892C194.009 22.956 193.933 23.028 193.901 23.108C193.869 23.18 193.853 23.252 193.853 23.324C193.853 23.468 193.885 23.584 193.949 23.672C194.021 23.76 194.133 23.828 194.285 23.876C194.437 23.924 194.633 23.96 194.873 23.984C195.113 24 195.401 24.012 195.737 24.02C195.929 24.028 196.157 24.04 196.421 24.056C196.685 24.064 196.961 24.096 197.249 24.152C197.545 24.2 197.833 24.276 198.113 24.38C198.401 24.484 198.657 24.628 198.881 24.812C199.105 24.988 199.285 25.216 199.421 25.496C199.565 25.768 199.637 26.1 199.637 26.492V26.648C199.637 26.992 199.573 27.32 199.445 27.632C199.325 27.944 199.113 28.22 198.809 28.46C198.505 28.7 198.101 28.888 197.597 29.024C197.093 29.168 196.457 29.24 195.689 29.24H195.257C194.625 29.24 194.009 29.204 193.409 29.132C192.817 29.068 192.233 28.976 191.657 28.856V26.84C192.305 26.984 192.973 27.1 193.661 27.188C194.357 27.276 195.013 27.32 195.629 27.32ZM203.73 29V22.88H200.61V20.96H209.022V22.88H205.89V29H203.73ZM210.09 24.668C210.09 24.124 210.158 23.612 210.294 23.132C210.43 22.652 210.666 22.236 211.002 21.884C211.346 21.524 211.806 21.24 212.382 21.032C212.958 20.824 213.682 20.72 214.554 20.72H214.986C215.858 20.72 216.582 20.824 217.158 21.032C217.734 21.24 218.19 21.524 218.526 21.884C218.87 22.236 219.11 22.652 219.246 23.132C219.382 23.612 219.45 24.124 219.45 24.668V25.292C219.45 25.836 219.382 26.348 219.246 26.828C219.11 27.308 218.87 27.728 218.526 28.088C218.19 28.44 217.734 28.72 217.158 28.928C216.582 29.136 215.858 29.24 214.986 29.24H214.554C213.682 29.24 212.958 29.136 212.382 28.928C211.806 28.72 211.346 28.44 211.002 28.088C210.666 27.728 210.43 27.308 210.294 26.828C210.158 26.348 210.09 25.836 210.09 25.292V24.668ZM212.25 24.98C212.25 25.284 212.262 25.58 212.286 25.868C212.318 26.148 212.41 26.396 212.562 26.612C212.722 26.828 212.97 27 213.306 27.128C213.65 27.256 214.138 27.32 214.77 27.32C215.402 27.32 215.886 27.256 216.222 27.128C216.566 27 216.814 26.828 216.966 26.612C217.126 26.396 217.218 26.148 217.242 25.868C217.274 25.58 217.29 25.284 217.29 24.98C217.29 24.676 217.274 24.384 217.242 24.104C217.218 23.824 217.126 23.576 216.966 23.36C216.814 23.144 216.566 22.972 216.222 22.844C215.886 22.716 215.402 22.652 214.77 22.652C214.138 22.652 213.65 22.716 213.306 22.844C212.97 22.972 212.722 23.144 212.562 23.36C212.41 23.576 212.318 23.824 212.286 24.104C212.262 24.384 212.25 24.676 212.25 24.98ZM227.207 29L225.599 26.48C225.167 26.48 224.751 26.476 224.351 26.468C223.951 26.46 223.559 26.424 223.175 26.36V29H221.015V20.96C221.703 20.88 222.423 20.82 223.175 20.78C223.935 20.74 224.679 20.72 225.407 20.72H225.743C226.415 20.72 226.971 20.792 227.411 20.936C227.851 21.072 228.203 21.26 228.467 21.5C228.731 21.74 228.915 22.02 229.019 22.34C229.123 22.66 229.175 23 229.175 23.36V23.84C229.175 24.344 229.075 24.804 228.875 25.22C228.675 25.628 228.319 25.944 227.807 26.168L229.295 28.52V29H227.207ZM225.431 22.64C225.151 22.64 224.803 22.648 224.387 22.664C223.979 22.68 223.575 22.708 223.175 22.748V24.452C223.551 24.5 223.907 24.532 224.243 24.548C224.579 24.556 224.851 24.56 225.059 24.56C225.539 24.56 225.911 24.54 226.175 24.5C226.439 24.452 226.631 24.384 226.751 24.296C226.879 24.208 226.955 24.096 226.979 23.96C227.003 23.824 227.015 23.66 227.015 23.468C227.015 23.364 227.007 23.264 226.991 23.168C226.975 23.064 226.915 22.972 226.811 22.892C226.715 22.812 226.559 22.752 226.343 22.712C226.127 22.664 225.823 22.64 225.431 22.64ZM238.551 22.88H233.019V24.08H237.351V26H233.019V27.08H238.551V29H230.859V20.96H238.551V22.88Z" fill="black"/>
<path d="M129.444 26L237.828 26V24L129.444 24V26Z" fill="black"/>
</g>
<defs>
<filter id="filter0_d_112_52" x="0" y="0" width="330" height="59" filterUnits="userSpaceOnUse" color-interpolation-filters="sRGB">
<feFlood flood-opacity="0" result="BackgroundImageFix"/>
<feColorMatrix in="SourceAlpha" type="matrix" values="0 0 0 0 0 0 0 0 0 0 0 0 0 0 0 0 0 0 127 0" result="hardAlpha"/>
<feOffset dy="4"/>
<feGaussianBlur stdDeviation="2"/>
<feComposite in2="hardAlpha" operator="out"/>
<feColorMatrix type="matrix" values="0 0 0 0 0 0 0 0 0 0 0 0 0 0 0 0 0 0 0.25 0"/>
<feBlend mode="normal" in2="BackgroundImageFix" result="effect1_dropShadow_112_52"/>
<feBlend mode="normal" in="SourceGraphic" in2="effect1_dropShadow_112_52" result="shape"/>
</filter>
</defs>
</svg>
