<?xml version="1.0" encoding="UTF-8" standalone="no"?>
<!-- Created with Inkscape (http://www.inkscape.org/) -->

<svg
   width="333"
   height="50"
   viewBox="0 0 88.106246 13.229166"
   version="1.1"
   id="svg1"
   xml:space="preserve"
   inkscape:version="1.3.2 (091e20e, 2023-11-25, custom)"
   sodipodi:docname="рисунок.svg"
   xmlns:inkscape="http://www.inkscape.org/namespaces/inkscape"
   xmlns:sodipodi="http://sodipodi.sourceforge.net/DTD/sodipodi-0.dtd"
   xmlns="http://www.w3.org/2000/svg"
   xmlns:svg="http://www.w3.org/2000/svg"><sodipodi:namedview
     id="namedview1"
     pagecolor="#505050"
     bordercolor="#ffffff"
     borderopacity="1"
     inkscape:showpageshadow="0"
     inkscape:pageopacity="0"
     inkscape:pagecheckerboard="1"
     inkscape:deskcolor="#505050"
     inkscape:document-units="mm"
     showguides="false"
     inkscape:zoom="4"
     inkscape:cx="153.375"
     inkscape:cy="-82.000001"
     inkscape:window-width="2880"
     inkscape:window-height="1760"
     inkscape:window-x="-12"
     inkscape:window-y="-12"
     inkscape:window-maximized="1"
     inkscape:current-layer="g32" /><defs
     id="defs1"><inkscape:path-effect
       effect="bspline"
       id="path-effect32"
       is_visible="true"
       lpeversion="1.3"
       weight="33.333333"
       steps="2"
       helper_size="0"
       apply_no_weight="true"
       apply_with_weight="true"
       only_selected="false"
       uniform="false" /><inkscape:path-effect
       effect="bspline"
       id="path-effect31"
       is_visible="true"
       lpeversion="1.3"
       weight="33.333333"
       steps="2"
       helper_size="0"
       apply_no_weight="true"
       apply_with_weight="true"
       only_selected="false"
       uniform="false" /><inkscape:path-effect
       effect="bspline"
       id="path-effect32-5"
       is_visible="true"
       lpeversion="1.3"
       weight="33.333333"
       steps="2"
       helper_size="0"
       apply_no_weight="true"
       apply_with_weight="true"
       only_selected="false"
       uniform="false" /></defs><g
     inkscape:label="Слой 1"
     inkscape:groupmode="layer"
     id="layer1"><g
       id="g32"
       transform="translate(-13.172037,-105.28361)"><g
         id="g22"
         transform="matrix(0.05224392,0,0,0.05553806,10.744736,104.29447)"
         style="stroke:#000000;stroke-width:1.00249;stroke-dasharray:none;stroke-opacity:1"><g
           id="g1"
           style="stroke:#000000;stroke-width:1.00249;stroke-dasharray:none;stroke-opacity:1"><path
             d="m 79,254.7 c -3.2,0 -5.8,-2.6 -5.8,-5.8 V 29.5 H 52.6 c -3.2,0 -5.8,-2.6 -5.8,-5.8 0,-3.2 2.6,-5.8 5.8,-5.8 H 79 c 3.2,0 5.8,2.6 5.8,5.8 v 225.2 c 0,3.2 -2.6,5.8 -5.8,5.8 z"
             id="path1"
             style="stroke:#000000;stroke-width:1.00249;stroke-dasharray:none;stroke-opacity:1" /></g><g
           id="g2"
           style="stroke:#000000;stroke-width:1.00249;stroke-dasharray:none;stroke-opacity:1"><path
             d="M 79,93.5 H 59.7 c -3.2,0 -5.8,-2.6 -5.8,-5.8 V 60 c 0,-3.2 2.6,-5.8 5.8,-5.8 H 79 c 3.2,0 5.8,2.6 5.8,5.8 v 27.7 c 0,3.2 -2.6,5.8 -5.8,5.8 z M 65.5,81.9 h 7.7 V 65.8 h -7.7 z"
             id="path2"
             style="stroke:#000000;stroke-width:1.00249;stroke-dasharray:none;stroke-opacity:1" /></g><g
           id="g3"
           style="stroke:#000000;stroke-width:1.00249;stroke-dasharray:none;stroke-opacity:1"><path
             d="M 78.6,181.7 H 59.2 c -3.2,0 -5.8,-2.6 -5.8,-5.8 v -66.2 c 0,-3.2 2.6,-5.8 5.8,-5.8 h 19.3 c 3.2,0 5.8,2.6 5.8,5.8 v 66.2 c 0.1,3.2 -2.5,5.8 -5.7,5.8 z M 65.1,170.1 h 7.7 v -54.6 h -7.7 z"
             id="path3"
             style="stroke:#000000;stroke-width:1.00249;stroke-dasharray:none;stroke-opacity:1" /></g><g
           id="g4"
           style="stroke:#000000;stroke-width:1.00249;stroke-dasharray:none;stroke-opacity:1"><path
             d="m 198.9,256.1 h -26.6 c -3.2,0 -5.8,-2.6 -5.8,-5.8 v -17.4 c 0,-3.2 2.6,-5.8 5.8,-5.8 3.2,0 5.8,2.6 5.8,5.8 v 11.6 h 15 v -11.6 c 0,-3.2 2.6,-5.8 5.8,-5.8 3.2,0 5.8,2.6 5.8,5.8 v 17.4 c 0,3.2 -2.6,5.8 -5.8,5.8 z"
             id="path4"
             style="stroke:#000000;stroke-width:1.00249;stroke-dasharray:none;stroke-opacity:1" /></g><g
           id="g5"
           style="stroke:#000000;stroke-width:1.00249;stroke-dasharray:none;stroke-opacity:1"><path
             d="M 355.5,256.1 H 220.8 c -3.2,0 -5.8,-2.6 -5.8,-5.8 v -17.4 c 0,-3.2 2.6,-5.8 5.8,-5.8 3.2,0 5.8,2.6 5.8,5.8 v 11.6 h 123.1 v -11.6 c 0,-3.2 2.6,-5.8 5.8,-5.8 3.2,0 5.8,2.6 5.8,5.8 v 17.4 c 0,3.2 -2.6,5.8 -5.8,5.8 z"
             id="path5"
             style="stroke:#000000;stroke-width:1.00249;stroke-dasharray:none;stroke-opacity:1" /></g><g
           id="g6"
           style="stroke:#000000;stroke-width:1.00249;stroke-dasharray:none;stroke-opacity:1"><path
             d="m 511.4,237 h -373 c -2.3,0 -4.4,-1.4 -5.3,-3.5 L 91.7,136.4 c -0.6,-1.4 -0.6,-3 0,-4.5 L 133,30.1 c 0.9,-2.2 3,-3.6 5.4,-3.6 h 373 c 2.5,0 4.6,1.5 5.5,3.9 l 36,101.1 c 0.5,1.3 0.4,2.7 0,3.9 l -36,97.8 c -0.9,2.2 -3,3.8 -5.5,3.8 z M 142.2,225.4 h 365.2 l 33.8,-92 L 507.3,38 h -365 l -39,96 z"
             id="path6"
             style="stroke:#000000;stroke-width:1.00249;stroke-dasharray:none;stroke-opacity:1" /></g><g
           id="g7"
           style="stroke:#000000;stroke-width:1.00249;stroke-dasharray:none;stroke-opacity:1"><path
             d="m 547.4,139.2 c 0,0 -0.1,0 -0.1,0 l -34.8,-0.7 c -3.2,-0.1 -5.7,-2.7 -5.7,-5.9 0.1,-3.2 2.7,-5.7 5.8,-5.7 0,0 0.1,0 0.1,0 l 34.8,0.7 c 3.2,0.1 5.7,2.7 5.7,5.9 -0.1,3.1 -2.7,5.7 -5.8,5.7 z"
             id="path7"
             style="stroke:#000000;stroke-width:1.00249;stroke-dasharray:none;stroke-opacity:1" /></g><g
           id="g8"
           style="stroke:#000000;stroke-width:1.00249;stroke-dasharray:none;stroke-opacity:1"><path
             d="M 537.2,224.4 H 516 c -3.2,0 -5.8,-2.6 -5.8,-5.8 0,-3.2 2.6,-5.8 5.8,-5.8 h 15.4 v -51.7 c 0,-3.2 2.6,-5.8 5.8,-5.8 3.2,0 5.8,2.6 5.8,5.8 v 57.5 c 0,3.2 -2.6,5.8 -5.8,5.8 z"
             id="path8"
             style="stroke:#000000;stroke-width:1.00249;stroke-dasharray:none;stroke-opacity:1" /></g><g
           id="g9"
           style="stroke:#000000;stroke-width:1.00249;stroke-dasharray:none;stroke-opacity:1"><path
             d="m 537.2,110.5 c -3.2,0 -5.8,-2.6 -5.8,-5.8 V 50.6 h -15.5 c -3.2,0 -5.8,-2.6 -5.8,-5.8 0,-3.2 2.6,-5.8 5.8,-5.8 h 21.3 c 3.2,0 5.8,2.6 5.8,5.8 v 59.9 c 0,3.2 -2.6,5.8 -5.8,5.8 z"
             id="path9"
             style="stroke:#000000;stroke-width:1.00249;stroke-dasharray:none;stroke-opacity:1" /></g><g
           id="g12"
           style="stroke:#000000;stroke-width:1.00249;stroke-dasharray:none;stroke-opacity:1"><g
             id="g10"
             style="stroke:#000000;stroke-width:1.00249;stroke-dasharray:none;stroke-opacity:1"><path
               d="m 430.8,221.7 c -0.7,0 -1.5,-0.1 -2.2,-0.4 l -50.8,-20.5 c -0.1,0 -0.1,0 -0.2,-0.1 l -7.6,-3.1 c -1.4,-0.6 -2.6,-1.7 -3.2,-3.1 l -24.7,-58.1 c -0.8,-2 -0.5,-4.3 0.8,-5.9 l 6.8,-8.4 c 12.9,-16.2 34.6,-22 53.9,-14.4 1.7,0.7 2.9,2 3.4,3.8 0.5,1.8 0.2,3.6 -0.8,5 -2.5,3.5 -4.2,7.4 -5,11.7 0,0 0,0 0,0 -0.3,1.8 -0.5,3.5 -0.5,5.3 0,2.7 0.4,5.4 1.1,8 0,0 0,0 0,0 1.2,4.1 3.2,7.9 6,11.1 0,0 0,0 0,0 2.9,3.4 6.6,6.1 10.7,7.8 0,0 0,0 0,0 3.6,1.5 7.3,2.2 11.2,2.2 0.4,0 0.8,0 1.2,0 0,0 0,0 0,0 4.5,-0.2 8.8,-1.4 12.7,-3.5 3.7,-2 7,-4.9 9.5,-8.4 1.6,-2.1 4.4,-2.9 6.9,-2 14.4,5.8 30.7,1.7 40.6,-10.3 l 6.3,-9.7 c 1.2,-1.8 3.2,-2.8 5.4,-2.6 2.1,0.2 4,1.5 4.8,3.5 l 0.4,0.9 c 0.6,1.4 0.6,3 0,4.4 l -23.7,58.6 c -0.6,1.4 -1.7,2.6 -3.1,3.2 L 433,221.2 c -0.7,0.3 -1.5,0.5 -2.2,0.5 z m -21.8,-20.8 19,7.7 c -11.2,-8.8 -17.8,-22.3 -17.8,-36.7 0,-0.9 0,-1.9 0.1,-2.8 -1.8,-1 -3.6,-2.2 -5.3,-3.5 -2,4.6 -3,9.4 -3,14.3 0.1,7.3 2.4,14.7 7,21 z m 12.9,-27.7 c 0.5,12.9 8,24.6 20,30.4 0.4,0.2 0.8,0.4 1.1,0.7 l 10.2,-4.3 c -11.6,-4.7 -21.1,-14 -25.9,-26.1 -1.8,0 -3.6,-0.3 -5.4,-0.7 z m -37.5,17.7 8.4,3.4 c -1.5,-4.7 -2.3,-9.6 -2.3,-14.4 0,-8 2,-16 6.2,-23.2 -1.1,-1.5 -2,-3.1 -2.8,-4.7 -7.8,6.7 -12.2,16.4 -12.2,26.6 0,2.5 0.3,5 0.8,7.6 z m 55.3,-18 c 6,11.4 17.7,18.8 31.1,19 0.5,0 0.9,0.1 1.3,0.2 l 12.4,-5.2 1.9,-4.7 c -14.4,3 -29.5,-1 -40.7,-11.1 -2,0.7 -4,1.3 -6,1.8 z m -75.4,-14.2 6.1,14.3 c 1.5,-13.1 8.5,-25 19.6,-32.8 -0.4,-2.1 -0.5,-4.2 -0.6,-6.3 -12.1,3.2 -21.7,12.5 -25.1,24.8 z m 91.9,5.9 c 10.3,7.6 23.9,9 35.9,3.5 l 4.5,-11.2 c -10.9,6.1 -24,7.7 -36.4,3.9 -1.3,1.3 -2.6,2.6 -4,3.8 z m -102,-29.6 3.8,9 c 7,-11.8 19,-20.1 33,-22.3 0.5,-1.8 1.2,-3.5 1.9,-5.2 -12.7,-2.4 -25.8,2.4 -34.1,12.8 z"
               id="path10"
               style="stroke:#000000;stroke-width:1.00249;stroke-dasharray:none;stroke-opacity:1" /></g><g
             id="g11"
             style="stroke:#000000;stroke-width:1.00249;stroke-dasharray:none;stroke-opacity:1"><path
               d="m 473.8,162.8 c -5.9,0 -11.9,-1.1 -17.7,-3.5 -1.7,-0.7 -2.9,-2.1 -3.4,-3.8 -0.5,-1.7 -0.2,-3.6 0.9,-5 2.6,-3.6 4.4,-7.8 5.2,-12.2 0,0 0,0 0,0 0.3,-1.7 0.4,-3.4 0.4,-5 0,-2.6 -0.3,-5.2 -1,-7.7 0,0 0,0 0,0 -1.2,-4.3 -3.3,-8.3 -6.3,-11.6 -2.8,-3.2 -6.4,-5.8 -10.3,-7.4 0,0 0,0 0,0 -3.6,-1.6 -7.5,-2.4 -11.5,-2.4 -0.5,0 -1,0 -1.5,0 -4.3,0.2 -8.4,1.4 -12.2,3.4 0,0 0,0 0,0 -3.9,2.1 -7.3,5.1 -9.9,8.7 -1.5,2.2 -4.4,3 -6.8,2 -14.6,-5.7 -30.9,-1.3 -40.7,10.9 l -6.9,8.4 c -1.8,2.2 -5,2.8 -7.4,1.3 -2.5,-1.5 -3.5,-4.5 -2.4,-7.2 L 366,73.1 c 0.6,-1.4 1.7,-2.6 3.1,-3.2 L 427,45.5 c 1.4,-0.6 3,-0.6 4.4,0 l 52.2,21.1 c 0,0 0,0 0.1,0 l 6.3,2.6 c 1.4,0.6 2.6,1.7 3.2,3.1 l 24.3,57.2 c 0.8,1.8 0.6,3.8 -0.5,5.4 l -6.5,10 c -0.1,0.2 -0.2,0.3 -0.4,0.5 -9.1,11.2 -22.5,17.4 -36.3,17.4 z M 467,150.5 c 12.6,2.5 25.6,-2 34,-12.2 l 4.7,-7.1 -3.8,-8.9 c -6.9,11.8 -18.8,20.1 -32.7,22.4 -0.6,1.9 -1.4,3.9 -2.2,5.8 z m 3.2,-23.6 c 0.3,1.8 0.5,3.7 0.5,5.5 12,-3.3 21.5,-12.6 24.8,-25 L 490,94.5 c -1.6,13 -8.7,24.7 -19.8,32.4 z m -7,-17.1 c 1.2,1.7 2.3,3.5 3.2,5.4 7.9,-6.7 12.4,-16.5 12.4,-26.8 0,-2.5 -0.3,-5 -0.8,-7.5 l -1.4,-4.6 -9.9,-4 c 1.6,4.8 2.4,9.7 2.4,14.7 0.1,7.8 -1.9,15.6 -5.9,22.8 z m -94.9,-11.7 -5,12.4 c 10.9,-6.2 23.9,-7.9 36.4,-4.3 1.4,-1.6 2.9,-3 4.5,-4.4 C 394,94.2 380.3,92.6 368.3,98.1 Z M 450,97.9 c 1.6,0.9 3.1,1.9 4.6,3 1.9,-4.5 2.9,-9.2 2.9,-14 0,-7.5 -2.4,-15 -7.2,-21.4 l -16.9,-6.8 c 10.6,8.9 16.7,21.9 16.7,35.9 0.1,1.1 0,2.2 -0.1,3.3 z M 383.2,83.2 c 11.5,0 22.8,4.3 31.6,12.3 1.7,-0.7 3.5,-1.3 5.3,-1.7 -6.1,-11.4 -17.9,-18.7 -31.2,-18.7 -0.5,0 -1.1,-0.1 -1.6,-0.2 l -11.6,4.9 -1.7,4.3 c 3,-0.5 6.1,-0.9 9.2,-0.9 z m 49.1,9.5 c 2.1,0.1 4.2,0.4 6.2,0.8 -0.4,-12.9 -7.8,-24.7 -19.8,-30.6 -0.5,-0.2 -0.9,-0.5 -1.3,-0.8 l -11.3,4.8 c 11.8,4.6 21.3,13.8 26.2,25.8 z"
               id="path11"
               style="stroke:#000000;stroke-width:1.00249;stroke-dasharray:none;stroke-opacity:1" /></g></g><g
           id="g14"
           style="stroke:#000000;stroke-width:1.00249;stroke-dasharray:none;stroke-opacity:1"><g
             id="g13"
             style="stroke:#000000;stroke-width:1.00249;stroke-dasharray:none;stroke-opacity:1"><path
               d="m 215.3,220.9 c -0.7,0 -1.5,-0.1 -2.2,-0.4 l -58.6,-23.7 c -1.4,-0.6 -2.6,-1.7 -3.2,-3.1 l -24.7,-58.1 c 0,-0.1 0,-0.1 -0.1,-0.2 0,0 0,0 0,0 0,0 0,0 0,0 -0.1,-0.3 -0.2,-0.6 -0.3,-0.9 -0.2,-1 -0.2,-2 0.2,-3 0,-0.1 0.1,-0.2 0.1,-0.3 l 23.6,-58.5 c 0.6,-1.4 1.7,-2.6 3.1,-3.2 l 58.1,-24.7 c 1.4,-0.6 3,-0.6 4.4,0 l 52.1,21.1 c 0,0 0.1,0 0.1,0 l 6.3,2.6 c 1.4,0.6 2.6,1.7 3.2,3.1 l 24.3,57.1 c 0,0 0,0.1 0.1,0.2 l 0.4,0.9 c 0.6,1.4 0.6,3 0,4.4 l -23.7,58.6 c -0.6,1.4 -1.7,2.6 -3.1,3.2 l -58.1,24.7 c -0.4,0.1 -1.2,0.2 -2,0.2 z m -21.7,-20.8 19,7.7 c -11.2,-8.8 -17.8,-22.3 -17.8,-36.7 0,-0.9 0,-1.9 0.1,-2.8 -1.8,-1 -3.6,-2.2 -5.3,-3.5 -2,4.6 -3,9.4 -3,14.3 0,7.3 2.4,14.7 7,21 z m 12.9,-27.6 c 0.5,12.9 8,24.6 20,30.4 0.4,0.2 0.8,0.4 1.1,0.7 l 10.2,-4.3 c -11.6,-4.7 -21.1,-14 -25.9,-26.1 -1.8,-0.1 -3.6,-0.4 -5.4,-0.7 z m -37.6,17.6 8.4,3.4 c -1.5,-4.7 -2.3,-9.6 -2.3,-14.4 0,-8 2,-16 6.2,-23.2 -1.1,-1.5 -2,-3.1 -2.8,-4.7 -7.8,6.7 -12.2,16.4 -12.2,26.6 0,2.5 0.3,5 0.8,7.6 z m 55.3,-18 c 6,11.4 17.7,18.8 31.1,19 0.5,0 0.9,0.1 1.3,0.2 l 12.4,-5.3 1.9,-4.7 c -14.4,3 -29.5,-1 -40.7,-11.1 -1.9,0.8 -3.9,1.5 -6,1.9 z m -75.4,-14.2 6.1,14.3 c 1.5,-13.1 8.5,-25 19.6,-32.8 -0.4,-2.1 -0.5,-4.2 -0.6,-6.3 -12.1,3.2 -21.6,12.5 -25.1,24.8 z m 91.9,5.9 c 10.3,7.5 23.9,9 35.9,3.5 l 4.5,-11.2 c -10.9,6.1 -24,7.7 -36.4,3.9 -1.2,1.3 -2.6,2.6 -4,3.8 z m -37.3,-4.4 c 0,0 0,0 0,0 4,1.7 8.2,2.4 12.5,2.2 0,0 0,0 0,0 4.5,-0.2 8.8,-1.4 12.7,-3.5 0,0 0,0 0,0 3.7,-2 7,-4.9 9.5,-8.4 0,0 0,0 0,0 2.6,-3.6 4.4,-7.8 5.2,-12.1 0,0 0,0 0,0 0.3,-1.7 0.4,-3.4 0.4,-5 0,-2.6 -0.3,-5.2 -1,-7.7 0,0 0,0 0,0 -1.2,-4.3 -3.3,-8.3 -6.3,-11.6 -2.8,-3.2 -6.4,-5.8 -10.3,-7.4 0,0 0,0 0,0 -3.6,-1.6 -7.5,-2.4 -11.5,-2.4 -0.5,0 -1,0 -1.5,0 0,0 0,0 0,0 -4.3,0.2 -8.4,1.4 -12.2,3.4 0,0 0,0 0,0 -3.9,2.1 -7.3,5.1 -9.9,8.7 0,0 0,0 0,0 -2.5,3.5 -4.2,7.4 -5,11.7 0,0 0,0 0,0 -0.3,1.8 -0.5,3.5 -0.5,5.3 0,2.7 0.4,5.3 1.1,7.9 0,0 0,0 0,0 1.2,4.1 3.2,7.9 6,11.1 0,0 0,0 0,0 3,3.5 6.7,6.1 10.8,7.8 z m 48.1,-9.7 c 12.6,2.5 25.6,-2 34,-12.2 l 4.7,-7.1 -3.8,-8.9 c -6.9,11.8 -18.8,20.1 -32.7,22.4 -0.5,1.9 -1.3,3.9 -2.2,5.8 z m -112.7,-15.4 3.8,9 c 7,-11.8 19,-20.1 33,-22.3 0.5,-1.8 1.2,-3.5 1.9,-5.2 -12.7,-2.4 -25.8,2.4 -34.1,12.8 z m 116,-8.2 c 0.3,1.8 0.5,3.7 0.5,5.5 12,-3.3 21.5,-12.6 24.8,-25 l -5.5,-12.9 c -1.7,13 -8.7,24.8 -19.8,32.4 z m -7,-17.1 c 1.2,1.7 2.3,3.5 3.2,5.4 7.9,-6.7 12.4,-16.5 12.4,-26.8 0,-2.5 -0.3,-5 -0.8,-7.5 l -1.4,-4.6 -9.9,-4 c 1.6,4.8 2.4,9.7 2.4,14.7 0.1,7.8 -1.9,15.7 -5.9,22.8 z m -94.9,-11.6 -5,12.4 c 10.9,-6.2 23.9,-7.9 36.4,-4.3 1.4,-1.6 2.9,-3 4.5,-4.4 -10.3,-7.7 -23.9,-9.2 -35.9,-3.7 z m 81.7,-0.3 c 1.6,0.9 3.1,1.9 4.6,3 1.9,-4.5 2.9,-9.2 2.9,-14 0,-7.5 -2.4,-15 -7.2,-21.4 L 218,58 c 10.6,8.9 16.7,21.9 16.7,35.9 0,1 0,2.1 -0.1,3.2 z M 167.7,82.5 c 11.5,0 22.8,4.3 31.6,12.3 1.7,-0.7 3.5,-1.3 5.3,-1.7 -6.1,-11.4 -17.9,-18.7 -31.2,-18.7 -0.5,0 -1.1,-0.1 -1.6,-0.2 l -11.6,4.9 -1.7,4.3 c 3.1,-0.6 6.2,-0.9 9.2,-0.9 z m 49.2,9.4 c 2.1,0.1 4.2,0.4 6.2,0.8 -0.4,-12.9 -7.8,-24.7 -19.8,-30.6 -0.5,-0.2 -0.9,-0.5 -1.3,-0.8 l -11.3,4.8 c 11.8,4.7 21.3,13.8 26.2,25.8 z"
               id="path12"
               style="stroke:#000000;stroke-width:1.00249;stroke-dasharray:none;stroke-opacity:1" /></g></g><g
           id="g15"
           style="stroke:#000000;stroke-width:1.00249;stroke-dasharray:none;stroke-opacity:1"><path
             d="m 284.6,237 c -0.7,0 -1.5,-0.1 -2.2,-0.4 -3,-1.2 -4.4,-4.6 -3.2,-7.6 l 38.9,-96.4 -41.7,-98.1 c -1.3,-2.9 0.1,-6.4 3.1,-7.6 2.9,-1.3 6.4,0.1 7.6,3.1 l 42.6,100.3 c 0.6,1.4 0.6,3 0,4.4 L 290,233.3 c -1,2.3 -3.1,3.7 -5.4,3.7 z"
             id="path14"
             style="stroke:#000000;stroke-width:1.00249;stroke-dasharray:none;stroke-opacity:1" /></g><g
           id="g16"
           style="stroke:#000000;stroke-width:1.00249;stroke-dasharray:none;stroke-opacity:1"><path
             d="m 361.4,104.2 c -2.3,0 -4.4,-1.3 -5.3,-3.5 L 328,34.5 c -1.3,-2.9 0.1,-6.4 3.1,-7.6 3,-1.3 6.4,0.1 7.6,3.1 l 28.1,66.2 c 1.3,2.9 -0.1,6.4 -3.1,7.6 -0.8,0.3 -1.6,0.4 -2.3,0.4 z"
             id="path15"
             style="stroke:#000000;stroke-width:1.00249;stroke-dasharray:none;stroke-opacity:1" /></g><g
           id="g17"
           style="stroke:#000000;stroke-width:1.00249;stroke-dasharray:none;stroke-opacity:1"><path
             d="m 336,237 c -0.7,0 -1.5,-0.1 -2.2,-0.4 -3,-1.2 -4.4,-4.6 -3.2,-7.6 L 356,166.1 c 1.2,-3 4.6,-4.4 7.6,-3.2 3,1.2 4.4,4.6 3.2,7.6 l -25.4,62.9 c -0.9,2.2 -3.1,3.6 -5.4,3.6 z"
             id="path16"
             style="stroke:#000000;stroke-width:1.00249;stroke-dasharray:none;stroke-opacity:1" /></g><g
           id="g18"
           style="stroke:#000000;stroke-width:1.00249;stroke-dasharray:none;stroke-opacity:1"><path
             d="M 130.8,50.6 H 79 c -3.2,0 -5.8,-2.6 -5.8,-5.8 0,-3.2 2.6,-5.8 5.8,-5.8 h 51.8 c 3.2,0 5.8,2.6 5.8,5.8 0,3.2 -2.6,5.8 -5.8,5.8 z"
             id="path17"
             style="stroke:#000000;stroke-width:1.00249;stroke-dasharray:none;stroke-opacity:1" /></g><g
           id="g19"
           style="stroke:#000000;stroke-width:1.00249;stroke-dasharray:none;stroke-opacity:1"><path
             d="M 130.6,224.4 H 79 c -3.2,0 -5.8,-2.6 -5.8,-5.8 0,-3.2 2.6,-5.8 5.8,-5.8 h 51.6 c 3.2,0 5.8,2.6 5.8,5.8 0,3.2 -2.6,5.8 -5.8,5.8 z"
             id="path18"
             style="stroke:#000000;stroke-width:1.00249;stroke-dasharray:none;stroke-opacity:1" /></g><g
           id="g20"
           style="stroke:#000000;stroke-width:1.00249;stroke-dasharray:none;stroke-opacity:1"><path
             d="m 297.1,138.4 c -3.2,0 -5.8,-2.6 -5.8,-5.8 0,-3.2 2.6,-5.8 5.8,-5.8 l 27.3,-0.1 c 0,0 0,0 0,0 3.2,0 5.8,2.6 5.8,5.8 0,3.2 -2.6,5.8 -5.8,5.8 z"
             id="path19"
             style="stroke:#000000;stroke-width:1.00249;stroke-dasharray:none;stroke-opacity:1" /></g><g
           id="g21"
           style="stroke:#000000;stroke-width:1.00249;stroke-dasharray:none;stroke-opacity:1"><path
             d="M 132.1,139.9 H 97 c -3.2,0 -5.8,-2.6 -5.8,-5.8 0,-3.2 2.6,-5.8 5.8,-5.8 h 35.1 c 3.2,0 5.8,2.6 5.8,5.8 0,3.2 -2.6,5.8 -5.8,5.8 z"
             id="path20"
             style="stroke:#000000;stroke-width:1.00249;stroke-dasharray:none;stroke-opacity:1" /></g></g><path
         style="fill:#000000;fill-opacity:1;stroke:none;stroke-width:0.264583;stroke-opacity:1"
         d="m 46.143949,105.28859 v 13.22917 0 0"
         id="path30" /><path
         style="font-variation-settings:normal;vector-effect:none;fill:#000000;fill-opacity:1;stroke:#000000;stroke-width:0.742325;stroke-linecap:butt;stroke-linejoin:miter;stroke-miterlimit:4;stroke-dasharray:none;stroke-dashoffset:0;stroke-opacity:1;-inkscape-stroke:none;stop-color:#000000"
         d="m 162.69922,22.25841 c 4.25737,0.662909 8.51474,1.325819 12.77212,1.98873"
         id="path32"
         inkscape:path-effect="#path-effect32"
         inkscape:original-d="m 162.69922,22.25841 c 4.25737,0.66291 8.51474,1.32582 12.77212,1.98873"
         transform="matrix(0.13217445,1.014309,-0.85626995,0.15656947,42.365175,-63.260991)" /><text
         xml:space="preserve"
         style="font-style:normal;font-variant:normal;font-weight:normal;font-stretch:normal;font-size:5.64444px;font-family:'GetVoIP Grotesque';-inkscape-font-specification:'GetVoIP Grotesque';fill:#000000;fill-opacity:1;stroke:none;stroke-width:0.539999;stroke-dasharray:none;stroke-opacity:1"
         x="49.487747"
         y="113.81106"
         id="text32"><tspan
           sodipodi:role="line"
           id="tspan32"
           x="49.487747"
           y="113.81106"
           style="stroke-width:0.539999">BROKEN STORE</tspan></text><path
         style="font-variation-settings:normal;fill:#000000;fill-opacity:1;stroke:#000000;stroke-width:0.300492;stroke-linecap:butt;stroke-linejoin:miter;stroke-miterlimit:4;stroke-dasharray:none;stroke-dashoffset:0;stroke-opacity:1;stop-color:#000000"
         d="m 162.69922,22.25841 c 4.26036,0.611047 8.52072,1.222094 12.78109,1.833143"
         id="path32-8"
         inkscape:path-effect="#path-effect32-5"
         inkscape:original-d="m 162.69922,22.25841 c 4.26036,0.611047 8.52072,1.222094 12.78109,1.833143"
         transform="matrix(3.8898042,-0.16096513,0.60043297,1.0427855,-596.34361,114.90043)"
         sodipodi:nodetypes="cc" /></g></g></svg>
