<svg width="333" height="50" viewBox="0 0 88.106 13.229" xml:space="preserve" xmlns="http://www.w3.org/2000/svg"><g style="stroke:#000;stroke-width:1.00249;stroke-dasharray:none;stroke-opacity:1"><path d="M79 254.7c-3.2 0-5.8-2.6-5.8-5.8V29.5H52.6c-3.2 0-5.8-2.6-5.8-5.8 0-3.2 2.6-5.8 5.8-5.8H79c3.2 0 5.8 2.6 5.8 5.8v225.2c0 3.2-2.6 5.8-5.8 5.8z" style="stroke:#000;stroke-width:1.00249;stroke-dasharray:none;stroke-opacity:1" transform="matrix(.05224 0 0 .05554 -2.427 -.99)"/><path d="M79 93.5H59.7c-3.2 0-5.8-2.6-5.8-5.8V60c0-3.2 2.6-5.8 5.8-5.8H79c3.2 0 5.8 2.6 5.8 5.8v27.7c0 3.2-2.6 5.8-5.8 5.8zM65.5 81.9h7.7V65.8h-7.7zM78.6 181.7H59.2c-3.2 0-5.8-2.6-5.8-5.8v-66.2c0-3.2 2.6-5.8 5.8-5.8h19.3c3.2 0 5.8 2.6 5.8 5.8v66.2c.1 3.2-2.5 5.8-5.7 5.8zm-13.5-11.6h7.7v-54.6h-7.7zM198.9 256.1h-26.6c-3.2 0-5.8-2.6-5.8-5.8v-17.4c0-3.2 2.6-5.8 5.8-5.8 3.2 0 5.8 2.6 5.8 5.8v11.6h15v-11.6c0-3.2 2.6-5.8 5.8-5.8 3.2 0 5.8 2.6 5.8 5.8v17.4c0 3.2-2.6 5.8-5.8 5.8zM355.5 256.1H220.8c-3.2 0-5.8-2.6-5.8-5.8v-17.4c0-3.2 2.6-5.8 5.8-5.8 3.2 0 5.8 2.6 5.8 5.8v11.6h123.1v-11.6c0-3.2 2.6-5.8 5.8-5.8 3.2 0 5.8 2.6 5.8 5.8v17.4c0 3.2-2.6 5.8-5.8 5.8z" style="stroke:#000;stroke-width:1.00249;stroke-dasharray:none;stroke-opacity:1" transform="matrix(.05224 0 0 .05554 -2.427 -.99)"/><path d="M511.4 237h-373c-2.3 0-4.4-1.4-5.3-3.5l-41.4-97.1c-.6-1.4-.6-3 0-4.5L133 30.1c.9-2.2 3-3.6 5.4-3.6h373c2.5 0 4.6 1.5 5.5 3.9l36 101.1c.5 1.3.4 2.7 0 3.9l-36 97.8c-.9 2.2-3 3.8-5.5 3.8zm-369.2-11.6h365.2l33.8-92L507.3 38h-365l-39 96z" style="stroke:#000;stroke-width:1.00249;stroke-dasharray:none;stroke-opacity:1" transform="matrix(.05224 0 0 .05554 -2.427 -.99)"/><path d="M547.4 139.2h-.1l-34.8-.7c-3.2-.1-5.7-2.7-5.7-5.9.1-3.2 2.7-5.7 5.8-5.7h.1l34.8.7c3.2.1 5.7 2.7 5.7 5.9-.1 3.1-2.7 5.7-5.8 5.7zM537.2 224.4H516c-3.2 0-5.8-2.6-5.8-5.8 0-3.2 2.6-5.8 5.8-5.8h15.4v-51.7c0-3.2 2.6-5.8 5.8-5.8 3.2 0 5.8 2.6 5.8 5.8v57.5c0 3.2-2.6 5.8-5.8 5.8zM537.2 110.5c-3.2 0-5.8-2.6-5.8-5.8V50.6h-15.5c-3.2 0-5.8-2.6-5.8-5.8 0-3.2 2.6-5.8 5.8-5.8h21.3c3.2 0 5.8 2.6 5.8 5.8v59.9c0 3.2-2.6 5.8-5.8 5.8z" style="stroke:#000;stroke-width:1.00249;stroke-dasharray:none;stroke-opacity:1" transform="matrix(.05224 0 0 .05554 -2.427 -.99)"/><g style="stroke:#000;stroke-width:1.00249;stroke-dasharray:none;stroke-opacity:1"><path d="M430.8 221.7c-.7 0-1.5-.1-2.2-.4l-50.8-20.5c-.1 0-.1 0-.2-.1l-7.6-3.1c-1.4-.6-2.6-1.7-3.2-3.1l-24.7-58.1c-.8-2-.5-4.3.8-5.9l6.8-8.4c12.9-16.2 34.6-22 53.9-14.4 1.7.7 2.9 2 3.4 3.8.5 1.8.2 3.6-.8 5-2.5 3.5-4.2 7.4-5 11.7-.3 1.8-.5 3.5-.5 5.3 0 2.7.4 5.4 1.1 8 1.2 4.1 3.2 7.9 6 11.1 2.9 3.4 6.6 6.1 10.7 7.8 3.6 1.5 7.3 2.2 11.2 2.2h1.2c4.5-.2 8.8-1.4 12.7-3.5 3.7-2 7-4.9 9.5-8.4 1.6-2.1 4.4-2.9 6.9-2 14.4 5.8 30.7 1.7 40.6-10.3l6.3-9.7c1.2-1.8 3.2-2.8 5.4-2.6 2.1.2 4 1.5 4.8 3.5l.4.9c.6 1.4.6 3 0 4.4l-23.7 58.6c-.6 1.4-1.7 2.6-3.1 3.2L433 221.2c-.7.3-1.5.5-2.2.5zM409 200.9l19 7.7c-11.2-8.8-17.8-22.3-17.8-36.7 0-.9 0-1.9.1-2.8-1.8-1-3.6-2.2-5.3-3.5-2 4.6-3 9.4-3 14.3.1 7.3 2.4 14.7 7 21zm12.9-27.7c.5 12.9 8 24.6 20 30.4.4.2.8.4 1.1.7l10.2-4.3c-11.6-4.7-21.1-14-25.9-26.1-1.8 0-3.6-.3-5.4-.7zm-37.5 17.7 8.4 3.4c-1.5-4.7-2.3-9.6-2.3-14.4 0-8 2-16 6.2-23.2-1.1-1.5-2-3.1-2.8-4.7-7.8 6.7-12.2 16.4-12.2 26.6 0 2.5.3 5 .8 7.6zm55.3-18c6 11.4 17.7 18.8 31.1 19 .5 0 .9.1 1.3.2l12.4-5.2 1.9-4.7c-14.4 3-29.5-1-40.7-11.1-2 .7-4 1.3-6 1.8zm-75.4-14.2 6.1 14.3c1.5-13.1 8.5-25 19.6-32.8-.4-2.1-.5-4.2-.6-6.3-12.1 3.2-21.7 12.5-25.1 24.8zm91.9 5.9c10.3 7.6 23.9 9 35.9 3.5l4.5-11.2c-10.9 6.1-24 7.7-36.4 3.9-1.3 1.3-2.6 2.6-4 3.8zm-102-29.6 3.8 9c7-11.8 19-20.1 33-22.3.5-1.8 1.2-3.5 1.9-5.2-12.7-2.4-25.8 2.4-34.1 12.8z" style="stroke:#000;stroke-width:1.00249;stroke-dasharray:none;stroke-opacity:1" transform="matrix(.05224 0 0 .05554 -2.427 -.99)"/><path d="M473.8 162.8c-5.9 0-11.9-1.1-17.7-3.5-1.7-.7-2.9-2.1-3.4-3.8-.5-1.7-.2-3.6.9-5 2.6-3.6 4.4-7.8 5.2-12.2.3-1.7.4-3.4.4-5 0-2.6-.3-5.2-1-7.7-1.2-4.3-3.3-8.3-6.3-11.6-2.8-3.2-6.4-5.8-10.3-7.4-3.6-1.6-7.5-2.4-11.5-2.4h-1.5c-4.3.2-8.4 1.4-12.2 3.4-3.9 2.1-7.3 5.1-9.9 8.7-1.5 2.2-4.4 3-6.8 2-14.6-5.7-30.9-1.3-40.7 10.9l-6.9 8.4c-1.8 2.2-5 2.8-7.4 1.3-2.5-1.5-3.5-4.5-2.4-7.2L366 73.1c.6-1.4 1.7-2.6 3.1-3.2L427 45.5c1.4-.6 3-.6 4.4 0l52.2 21.1h.1l6.3 2.6c1.4.6 2.6 1.7 3.2 3.1l24.3 57.2c.8 1.8.6 3.8-.5 5.4l-6.5 10c-.1.2-.2.3-.4.5-9.1 11.2-22.5 17.4-36.3 17.4zm-6.8-12.3c12.6 2.5 25.6-2 34-12.2l4.7-7.1-3.8-8.9c-6.9 11.8-18.8 20.1-32.7 22.4-.6 1.9-1.4 3.9-2.2 5.8zm3.2-23.6c.3 1.8.5 3.7.5 5.5 12-3.3 21.5-12.6 24.8-25L490 94.5c-1.6 13-8.7 24.7-19.8 32.4zm-7-17.1c1.2 1.7 2.3 3.5 3.2 5.4 7.9-6.7 12.4-16.5 12.4-26.8 0-2.5-.3-5-.8-7.5l-1.4-4.6-9.9-4c1.6 4.8 2.4 9.7 2.4 14.7.1 7.8-1.9 15.6-5.9 22.8zm-94.9-11.7-5 12.4c10.9-6.2 23.9-7.9 36.4-4.3 1.4-1.6 2.9-3 4.5-4.4-10.2-7.6-23.9-9.2-35.9-3.7Zm81.7-.2c1.6.9 3.1 1.9 4.6 3 1.9-4.5 2.9-9.2 2.9-14 0-7.5-2.4-15-7.2-21.4l-16.9-6.8c10.6 8.9 16.7 21.9 16.7 35.9.1 1.1 0 2.2-.1 3.3zm-66.8-14.7c11.5 0 22.8 4.3 31.6 12.3 1.7-.7 3.5-1.3 5.3-1.7-6.1-11.4-17.9-18.7-31.2-18.7-.5 0-1.1-.1-1.6-.2l-11.6 4.9-1.7 4.3c3-.5 6.1-.9 9.2-.9zm49.1 9.5c2.1.1 4.2.4 6.2.8-.4-12.9-7.8-24.7-19.8-30.6-.5-.2-.9-.5-1.3-.8l-11.3 4.8c11.8 4.6 21.3 13.8 26.2 25.8z" style="stroke:#000;stroke-width:1.00249;stroke-dasharray:none;stroke-opacity:1" transform="matrix(.05224 0 0 .05554 -2.427 -.99)"/></g><path d="M215.3 220.9c-.7 0-1.5-.1-2.2-.4l-58.6-23.7c-1.4-.6-2.6-1.7-3.2-3.1l-24.7-58.1c0-.1 0-.1-.1-.2l-.3-.9c-.2-1-.2-2 .2-3 0-.1.1-.2.1-.3l23.6-58.5c.6-1.4 1.7-2.6 3.1-3.2l58.1-24.7c1.4-.6 3-.6 4.4 0l52.1 21.1h.1l6.3 2.6c1.4.6 2.6 1.7 3.2 3.1l24.3 57.1s0 .1.1.2l.4.9c.6 1.4.6 3 0 4.4l-23.7 58.6c-.6 1.4-1.7 2.6-3.1 3.2l-58.1 24.7c-.4.1-1.2.2-2 .2zm-21.7-20.8 19 7.7c-11.2-8.8-17.8-22.3-17.8-36.7 0-.9 0-1.9.1-2.8-1.8-1-3.6-2.2-5.3-3.5-2 4.6-3 9.4-3 14.3 0 7.3 2.4 14.7 7 21zm12.9-27.6c.5 12.9 8 24.6 20 30.4.4.2.8.4 1.1.7l10.2-4.3c-11.6-4.7-21.1-14-25.9-26.1-1.8-.1-3.6-.4-5.4-.7zm-37.6 17.6 8.4 3.4c-1.5-4.7-2.3-9.6-2.3-14.4 0-8 2-16 6.2-23.2-1.1-1.5-2-3.1-2.8-4.7-7.8 6.7-12.2 16.4-12.2 26.6 0 2.5.3 5 .8 7.6zm55.3-18c6 11.4 17.7 18.8 31.1 19 .5 0 .9.1 1.3.2L269 186l1.9-4.7c-14.4 3-29.5-1-40.7-11.1-1.9.8-3.9 1.5-6 1.9zm-75.4-14.2 6.1 14.3c1.5-13.1 8.5-25 19.6-32.8-.4-2.1-.5-4.2-.6-6.3-12.1 3.2-21.6 12.5-25.1 24.8zm91.9 5.9c10.3 7.5 23.9 9 35.9 3.5l4.5-11.2c-10.9 6.1-24 7.7-36.4 3.9-1.2 1.3-2.6 2.6-4 3.8zm-37.3-4.4c4 1.7 8.2 2.4 12.5 2.2 4.5-.2 8.8-1.4 12.7-3.5 3.7-2 7-4.9 9.5-8.4 2.6-3.6 4.4-7.8 5.2-12.1.3-1.7.4-3.4.4-5 0-2.6-.3-5.2-1-7.7-1.2-4.3-3.3-8.3-6.3-11.6-2.8-3.2-6.4-5.8-10.3-7.4-3.6-1.6-7.5-2.4-11.5-2.4h-1.5c-4.3.2-8.4 1.4-12.2 3.4-3.9 2.1-7.3 5.1-9.9 8.7-2.5 3.5-4.2 7.4-5 11.7-.3 1.8-.5 3.5-.5 5.3 0 2.7.4 5.3 1.1 7.9 1.2 4.1 3.2 7.9 6 11.1 3 3.5 6.7 6.1 10.8 7.8zm48.1-9.7c12.6 2.5 25.6-2 34-12.2l4.7-7.1-3.8-8.9c-6.9 11.8-18.8 20.1-32.7 22.4-.5 1.9-1.3 3.9-2.2 5.8zm-112.7-15.4 3.8 9c7-11.8 19-20.1 33-22.3.5-1.8 1.2-3.5 1.9-5.2-12.7-2.4-25.8 2.4-34.1 12.8zm116-8.2c.3 1.8.5 3.7.5 5.5 12-3.3 21.5-12.6 24.8-25l-5.5-12.9c-1.7 13-8.7 24.8-19.8 32.4zm-7-17.1c1.2 1.7 2.3 3.5 3.2 5.4 7.9-6.7 12.4-16.5 12.4-26.8 0-2.5-.3-5-.8-7.5l-1.4-4.6-9.9-4c1.6 4.8 2.4 9.7 2.4 14.7.1 7.8-1.9 15.7-5.9 22.8zm-94.9-11.6-5 12.4c10.9-6.2 23.9-7.9 36.4-4.3 1.4-1.6 2.9-3 4.5-4.4-10.3-7.7-23.9-9.2-35.9-3.7zm81.7-.3c1.6.9 3.1 1.9 4.6 3 1.9-4.5 2.9-9.2 2.9-14 0-7.5-2.4-15-7.2-21.4L218 58c10.6 8.9 16.7 21.9 16.7 35.9 0 1 0 2.1-.1 3.2zm-66.9-14.6c11.5 0 22.8 4.3 31.6 12.3 1.7-.7 3.5-1.3 5.3-1.7-6.1-11.4-17.9-18.7-31.2-18.7-.5 0-1.1-.1-1.6-.2l-11.6 4.9-1.7 4.3c3.1-.6 6.2-.9 9.2-.9zm49.2 9.4c2.1.1 4.2.4 6.2.8-.4-12.9-7.8-24.7-19.8-30.6-.5-.2-.9-.5-1.3-.8l-11.3 4.8c11.8 4.7 21.3 13.8 26.2 25.8z" style="stroke:#000;stroke-width:1.00249;stroke-dasharray:none;stroke-opacity:1" transform="matrix(.05224 0 0 .05554 -2.427 -.99)"/><path d="M284.6 237c-.7 0-1.5-.1-2.2-.4-3-1.2-4.4-4.6-3.2-7.6l38.9-96.4-41.7-98.1c-1.3-2.9.1-6.4 3.1-7.6 2.9-1.3 6.4.1 7.6 3.1l42.6 100.3c.6 1.4.6 3 0 4.4L290 233.3c-1 2.3-3.1 3.7-5.4 3.7zM361.4 104.2c-2.3 0-4.4-1.3-5.3-3.5L328 34.5c-1.3-2.9.1-6.4 3.1-7.6 3-1.3 6.4.1 7.6 3.1l28.1 66.2c1.3 2.9-.1 6.4-3.1 7.6-.8.3-1.6.4-2.3.4zM336 237c-.7 0-1.5-.1-2.2-.4-3-1.2-4.4-4.6-3.2-7.6l25.4-62.9c1.2-3 4.6-4.4 7.6-3.2 3 1.2 4.4 4.6 3.2 7.6l-25.4 62.9c-.9 2.2-3.1 3.6-5.4 3.6zM130.8 50.6H79c-3.2 0-5.8-2.6-5.8-5.8 0-3.2 2.6-5.8 5.8-5.8h51.8c3.2 0 5.8 2.6 5.8 5.8 0 3.2-2.6 5.8-5.8 5.8zM130.6 224.4H79c-3.2 0-5.8-2.6-5.8-5.8 0-3.2 2.6-5.8 5.8-5.8h51.6c3.2 0 5.8 2.6 5.8 5.8 0 3.2-2.6 5.8-5.8 5.8z" style="stroke:#000;stroke-width:1.00249;stroke-dasharray:none;stroke-opacity:1" transform="matrix(.05224 0 0 .05554 -2.427 -.99)"/><path d="M297.1 138.4c-3.2 0-5.8-2.6-5.8-5.8 0-3.2 2.6-5.8 5.8-5.8l27.3-.1c3.2 0 5.8 2.6 5.8 5.8 0 3.2-2.6 5.8-5.8 5.8zM132.1 139.9H97c-3.2 0-5.8-2.6-5.8-5.8 0-3.2 2.6-5.8 5.8-5.8h35.1c3.2 0 5.8 2.6 5.8 5.8 0 3.2-2.6 5.8-5.8 5.8z" style="stroke:#000;stroke-width:1.00249;stroke-dasharray:none;stroke-opacity:1" transform="matrix(.05224 0 0 .05554 -2.427 -.99)"/></g><path style="fill:#000;fill-opacity:1;stroke:none;stroke-width:.264583;stroke-opacity:1" d="M46.144 105.289v13.229" transform="translate(-13.172 -105.284)"/><path style="font-variation-settings:normal;vector-effect:none;fill:#000;fill-opacity:1;stroke:#000;stroke-width:.742325;stroke-linecap:butt;stroke-linejoin:miter;stroke-miterlimit:4;stroke-dasharray:none;stroke-dashoffset:0;stroke-opacity:1;-inkscape-stroke:none;stop-color:#000" d="m162.7 22.258 12.771 1.99" transform="matrix(.13217 1.0143 -.85627 .15657 29.193 -168.545)"/><text xml:space="preserve" style="font-style:normal;font-variant:normal;font-weight:400;font-stretch:normal;font-size:5.64444px;font-family:'GetVoIP Grotesque';-inkscape-font-specification:'GetVoIP Grotesque';fill:#000;fill-opacity:1;stroke:none;stroke-width:.539999;stroke-dasharray:none;stroke-opacity:1" x="49.488" y="113.811" transform="translate(-13.172 -105.284)"><tspan x="49.488" y="113.811" style="stroke-width:.539999">BROKEN STORE</tspan></text><path style="font-variation-settings:normal;fill:#000;fill-opacity:1;stroke:#000;stroke-width:.300492;stroke-linecap:butt;stroke-linejoin:miter;stroke-miterlimit:4;stroke-dasharray:none;stroke-dashoffset:0;stroke-opacity:1;stop-color:#000" d="m162.7 22.258 12.78 1.834" transform="matrix(3.8898 -.16097 .60043 1.04279 -609.516 9.617)"/></svg>