<svg fill="none" viewBox="0 0 100 50" xmlns="http://www.w3.org/2000/svg"><defs><clipPath id="a"><path fill="#fff" fill-opacity="0" d="M0 0h100v50H0z"/></clipPath></defs><g clip-path="url(#a)"><path d="M6.457 49.811c-.632 0-1.145-.546-1.145-1.218V2.54H1.244C.612 2.54.1 1.994.1 1.322S.612.105 1.244.105h5.213c.632 0 1.145.545 1.145 1.217v47.271c0 .672-.513 1.217-1.145 1.217z" fill="#000"/><path d="M5.312 48.594V2.54H1.244C.612 2.54.1 1.994.1 1.322.099.651.612.105 1.244.105h5.213c.632 0 1.145.546 1.145 1.217v47.272c0 .671-.513 1.217-1.145 1.217s-1.145-.546-1.145-1.218z" stroke="#000" stroke-width=".198"/><path d="M6.457 15.974h-3.81c-.633 0-1.146-.546-1.146-1.218V8.943c0-.672.513-1.217 1.145-1.217h3.811c.632 0 1.145.545 1.145 1.217v5.814c0 .672-.513 1.218-1.145 1.218zm-2.666-2.435h1.52v-3.38h-1.52v3.38z" fill="#000"/><path d="M2.646 15.974c-.632 0-1.145-.546-1.145-1.218V8.943c0-.672.513-1.217 1.145-1.217h3.811c.632 0 1.145.545 1.145 1.217v5.814c0 .672-.513 1.218-1.145 1.218h-3.81zm2.666-2.435v-3.38h-1.52v3.38h1.52z" stroke="#000" stroke-width=".198"/><path d="M6.378 34.488h-3.83c-.632 0-1.146-.546-1.146-1.217V19.375c0-.672.513-1.218 1.145-1.218h3.811c.632 0 1.146.546 1.146 1.218V33.27c.02.671-.494 1.217-1.126 1.217zm-2.666-2.435h1.52v-11.46h-1.52v11.46z" fill="#000"/><path d="M2.547 34.488c-.631 0-1.145-.546-1.145-1.217V19.375c0-.672.513-1.218 1.145-1.218h3.811c.632 0 1.146.546 1.146 1.218V33.27c.02.671-.494 1.217-1.126 1.217h-3.83zm2.686-2.435v-11.46h-1.52v11.46h1.52z" stroke="#000" stroke-width=".198"/><path d="M30.132 50.105H24.88c-.632 0-1.146-.546-1.146-1.217v-3.653c0-.671.514-1.217 1.146-1.217.631 0 1.145.546 1.145 1.217v2.435h2.962v-2.435c0-.671.513-1.217 1.145-1.217s1.145.546 1.145 1.217v3.653c0 .671-.513 1.217-1.145 1.217z" fill="#000"/><path d="M24.88 50.105c-.632 0-1.145-.546-1.145-1.217v-3.653c0-.671.513-1.217 1.145-1.217s1.145.546 1.145 1.217v2.435h2.962v-2.435c0-.671.513-1.217 1.145-1.217s1.146.546 1.146 1.217v3.653c0 .671-.514 1.217-1.146 1.217H24.88z" stroke="#000" stroke-width=".198"/><path d="M61.054 50.105H34.456c-.632 0-1.145-.546-1.145-1.217v-3.653c0-.671.513-1.217 1.145-1.217s1.145.546 1.145 1.217v2.435h24.307v-2.435c0-.671.514-1.217 1.145-1.217.632 0 1.146.546 1.146 1.217v3.653c0 .671-.514 1.217-1.145 1.217z" fill="#000"/><path d="M34.456 50.105c-.632 0-1.145-.546-1.145-1.217v-3.653c0-.671.513-1.217 1.145-1.217s1.145.546 1.145 1.217v2.435h24.307v-2.435c0-.671.514-1.217 1.145-1.217.632 0 1.146.546 1.146 1.217v3.653c0 .671-.514 1.217-1.145 1.217H34.454z" stroke="#000" stroke-width=".198"/><path d="M91.838 46.096H18.186c-.454 0-.869-.294-1.047-.735L8.965 24.98a1.3 1.3 0 0 1 0-.944l8.155-21.37c.177-.46.592-.755 1.066-.755h73.652c.494 0 .908.315 1.086.819l7.108 21.222c.1.273.08.567 0 .818L92.924 45.3c-.178.461-.592.797-1.086.797zm-72.901-2.435h72.112l6.674-19.312-6.694-20.025H18.957l-7.7 20.151 7.68 19.186z" fill="#000"/><path d="M18.186 46.096c-.454 0-.869-.294-1.046-.735L8.964 24.98a1.3 1.3 0 0 1 0-.944l8.155-21.37c.177-.46.592-.755 1.066-.755h73.652c.494 0 .908.315 1.086.819l7.108 21.222c.1.273.08.567 0 .818L92.924 45.3c-.178.461-.592.797-1.086.797H18.186zm72.862-2.435 6.674-19.312-6.694-20.025H18.956l-7.7 20.151 7.68 19.186h72.112z" stroke="#000" stroke-width=".198"/><path d="m98.946 25.567-6.891-.147c-.632-.021-1.126-.567-1.126-1.238.02-.672.533-1.197 1.145-1.197l6.892.147c.632.021 1.125.567 1.125 1.238-.02.651-.533 1.197-1.145 1.197z" fill="#000"/><path d="M92.055 25.42c-.632-.021-1.125-.567-1.125-1.238.02-.672.533-1.197 1.145-1.197l6.891.147c.632.021 1.125.567 1.125 1.238-.019.651-.533 1.197-1.145 1.197l-6.891-.147z" stroke="#000" stroke-width=".198"/><path d="M96.932 43.451h-4.186c-.632 0-1.145-.546-1.145-1.218 0-.671.513-1.217 1.145-1.217h3.04V30.164c0-.672.514-1.217 1.146-1.217.632 0 1.145.545 1.145 1.217v12.07c0 .672-.513 1.218-1.145 1.218z" fill="#000"/><path d="M92.746 43.451c-.632 0-1.145-.546-1.145-1.218 0-.671.513-1.217 1.145-1.217h3.04V30.164c0-.672.514-1.217 1.146-1.217.632 0 1.145.545 1.145 1.217v12.07c0 .672-.513 1.218-1.145 1.218h-4.186z" stroke="#000" stroke-width=".198"/><path d="M96.932 19.543c-.632 0-1.145-.546-1.145-1.218V6.97h-3.06c-.633 0-1.146-.545-1.146-1.217s.513-1.217 1.145-1.217h4.206c.632 0 1.145.545 1.145 1.217v12.574c0 .672-.513 1.217-1.145 1.217z" fill="#000"/><path d="M95.787 18.325V6.969h-3.06c-.632 0-1.146-.546-1.146-1.218 0-.671.514-1.217 1.145-1.217h4.206c.632 0 1.146.546 1.146 1.217v12.574c0 .672-.514 1.218-1.146 1.218-.632 0-1.145-.546-1.145-1.218z" stroke="#000" stroke-width=".198"/><path d="M75.923 42.884c-.138 0-.296-.021-.434-.084l-10.031-4.303c-.02 0-.02 0-.04-.021l-1.5-.65a1.233 1.233 0 0 1-.632-.652l-4.878-12.196c-.158-.42-.098-.902.158-1.238l1.343-1.763c2.547-3.4 6.832-4.618 10.643-3.023.336.147.573.42.671.798s.04.755-.158 1.05a6.314 6.314 0 0 0-.987 2.455 7.06 7.06 0 0 0-.099 1.113c0 .567.08 1.133.218 1.68.237.86.632 1.657 1.184 2.33a5.656 5.656 0 0 0 2.113 1.636c.711.315 1.442.462 2.212.462h.237a5.55 5.55 0 0 0 2.507-.735 5.712 5.712 0 0 0 1.876-1.763c.316-.44.869-.609 1.363-.42 2.843 1.218 6.062.357 8.016-2.162l1.244-2.036c.237-.378.632-.587 1.067-.545.414.042.79.314.947.734l.08.19c.118.293.118.629 0 .923l-4.68 12.3a1.24 1.24 0 0 1-.612.672L76.358 42.78a1.098 1.098 0 0 1-.435.105zm-4.305-4.366 3.752 1.616c-2.211-1.847-3.515-4.68-3.515-7.703 0-.19 0-.4.02-.588a8.678 8.678 0 0 1-1.046-.735 7.883 7.883 0 0 0-.593 3.002 7.982 7.982 0 0 0 1.382 4.408zm2.548-5.815c.098 2.708 1.58 5.164 3.949 6.382a.814.814 0 0 1 .217.146l2.014-.902c-2.29-.987-4.166-2.939-5.114-5.479-.355 0-.711-.063-1.066-.147zM66.76 36.42l1.659.714a10.575 10.575 0 0 1-.454-3.023c0-1.68.394-3.359 1.224-4.87a6.898 6.898 0 0 1-.553-.987c-1.54 1.407-2.41 3.443-2.41 5.584 0 .525.06 1.05.159 1.595l.375.987zM77.68 32.64c1.185 2.392 3.495 3.946 6.14 3.988.1 0 .179.02.258.042l2.448-1.092.375-.986c-2.843.63-5.825-.21-8.036-2.33-.395.147-.79.272-1.185.377zM62.792 29.66l1.205 3.001c.296-2.75 1.678-5.247 3.87-6.884-.08-.441-.1-.882-.119-1.323-2.39.672-4.285 2.624-4.956 5.206zm18.146 1.238c2.034 1.596 4.72 1.89 7.089.735l.888-2.351c-2.152 1.28-4.739 1.616-7.187.819-.257.272-.513.545-.79.797zm-20.141-6.213.75 1.89c1.383-2.478 3.752-4.22 6.516-4.682.1-.378.237-.735.376-1.091-2.508-.504-5.095.503-6.734 2.686l-.908 1.197z" fill="#000"/><path d="m75.488 42.8-10.031-4.303c-.02 0-.02 0-.04-.021l-1.5-.65a1.233 1.233 0 0 1-.632-.652l-4.877-12.196c-.158-.42-.099-.902.158-1.238l1.342-1.763c2.548-3.4 6.832-4.618 10.643-3.023.336.147.573.42.672.798s.04.755-.158 1.05a6.314 6.314 0 0 0-.988 2.455 7.06 7.06 0 0 0-.098 1.113c0 .567.079 1.133.217 1.68.237.86.632 1.657 1.185 2.33a5.656 5.656 0 0 0 2.113 1.636c.71.315 1.441.462 2.211.462h.237a5.55 5.55 0 0 0 2.508-.735 5.712 5.712 0 0 0 1.876-1.763c.316-.44.868-.609 1.362-.42 2.843 1.218 6.062.357 8.017-2.162l1.244-2.036c.237-.378.632-.587 1.066-.545.415.042.79.314.948.734l.079.19c.118.293.118.629 0 .923l-4.68 12.3a1.24 1.24 0 0 1-.612.672L76.357 42.78c-.138.063-.296.105-.434.105s-.297-.02-.435-.084zm-.118-2.666c-2.212-1.847-3.515-4.68-3.515-7.703 0-.19 0-.4.02-.588a8.678 8.678 0 0 1-1.047-.735 7.883 7.883 0 0 0-.592 3.002 7.982 7.982 0 0 0 1.382 4.408l3.752 1.616zm2.744-1.05a.814.814 0 0 1 .217.147l2.014-.902c-2.29-.987-4.166-2.939-5.114-5.479-.355 0-.71-.063-1.066-.147.099 2.708 1.58 5.164 3.95 6.382zm-9.695-1.952a10.575 10.575 0 0 1-.454-3.022c0-1.68.395-3.359 1.224-4.87a6.898 6.898 0 0 1-.553-.987c-1.54 1.407-2.409 3.443-2.409 5.584 0 .525.06 1.05.158 1.595l.375.987 1.659.714zm15.402-.503c.099 0 .178.02.257.042l2.448-1.092.375-.986c-2.843.63-5.825-.21-8.036-2.33-.395.147-.79.272-1.185.377 1.185 2.393 3.495 3.947 6.141 3.989zm-19.825-3.967c.296-2.75 1.678-5.248 3.87-6.885-.079-.441-.099-.882-.118-1.323-2.39.672-4.285 2.624-4.957 5.206l1.205 3.001zm24.03-1.03.889-2.35c-2.153 1.28-4.74 1.616-7.188.819-.257.272-.513.545-.79.797 2.034 1.596 4.72 1.89 7.089.735zm-26.479-5.058c1.382-2.477 3.752-4.219 6.516-4.68.099-.379.237-.736.375-1.092-2.507-.504-5.094.503-6.733 2.686l-.908 1.197.75 1.89z" stroke="#000" stroke-width=".198"/><path d="M84.413 30.521a8.644 8.644 0 0 1-3.495-.735c-.336-.147-.573-.44-.671-.797s-.04-.756.177-1.05a6.54 6.54 0 0 0 1.027-2.56c.06-.358.08-.714.08-1.05 0-.546-.06-1.092-.198-1.617-.237-.902-.652-1.742-1.244-2.435a5.548 5.548 0 0 0-2.034-1.553 5.293 5.293 0 0 0-2.27-.504h-.297a5.465 5.465 0 0 0-2.41.714 5.96 5.96 0 0 0-1.954 1.826 1.08 1.08 0 0 1-1.343.42c-2.883-1.196-6.101-.273-8.036 2.288l-1.363 1.763c-.355.462-.987.588-1.46.273-.494-.315-.692-.945-.475-1.511l4.68-12.301a1.24 1.24 0 0 1 .612-.672l11.433-5.122c.277-.126.593-.126.87 0l10.306 4.43h.02l1.244.545c.276.126.513.357.632.65l4.798 12.008c.158.378.118.798-.099 1.133l-1.283 2.1a.367.367 0 0 1-.08.104c-1.796 2.351-4.442 3.653-7.167 3.653zm-1.343-2.582c2.488.525 5.055-.42 6.714-2.56l.928-1.491-.75-1.868c-1.363 2.477-3.713 4.219-6.457 4.701-.119.4-.277.82-.435 1.218zm.632-4.954c.06.378.099.777.099 1.155 2.37-.693 4.245-2.645 4.897-5.248l-1.086-2.708c-.316 2.73-1.718 5.185-3.91 6.801zm-1.382-3.59c.237.358.454.735.632 1.134 1.56-1.406 2.448-3.463 2.448-5.625 0-.525-.059-1.05-.158-1.575l-.276-.965-1.955-.84c.316 1.008.474 2.036.474 3.086a10.06 10.06 0 0 1-1.165 4.786zM63.581 16.94l-.987 2.603c2.152-1.302 4.719-1.659 7.187-.903.277-.336.573-.63.889-.924-2.014-1.595-4.72-1.93-7.089-.776zm16.132-.042c.316.189.612.399.908.63a7.928 7.928 0 0 0 .573-2.939 7.785 7.785 0 0 0-1.422-4.492l-3.337-1.428c2.093 1.869 3.298 4.597 3.298 7.536.02.231 0 .462-.02.693zm-13.19-3.086c2.27 0 4.502.903 6.24 2.582a6.197 6.197 0 0 1 1.046-.357c-1.204-2.393-3.534-3.925-6.16-3.925a1.63 1.63 0 0 1-.316-.042l-2.29 1.029-.337.902c.593-.105 1.205-.189 1.817-.189zm9.695 1.994c.415.021.83.084 1.225.168-.08-2.708-1.54-5.184-3.91-6.423-.099-.042-.178-.105-.257-.168l-2.231 1.008c2.33.965 4.206 2.896 5.173 5.415z" fill="#000"/><path d="M80.918 29.786c-.336-.147-.573-.44-.671-.798s-.04-.755.177-1.05a6.54 6.54 0 0 0 1.027-2.56c.06-.357.08-.714.08-1.05 0-.545-.06-1.091-.198-1.616-.237-.902-.652-1.742-1.244-2.435a5.548 5.548 0 0 0-2.034-1.553 5.293 5.293 0 0 0-2.27-.504h-.297a5.465 5.465 0 0 0-2.41.714 5.96 5.96 0 0 0-1.954 1.826 1.08 1.08 0 0 1-1.343.42c-2.883-1.197-6.101-.273-8.036 2.288l-1.363 1.763c-.355.462-.987.588-1.46.273-.494-.315-.692-.945-.475-1.511l4.68-12.301a1.24 1.24 0 0 1 .612-.672l11.433-5.122c.277-.126.593-.126.87 0l10.306 4.43h.02l1.244.545c.276.126.513.357.632.65l4.798 12.008c.158.378.118.797-.099 1.133l-1.283 2.1a.367.367 0 0 1-.08.104c-1.796 2.351-4.442 3.653-7.167 3.653a8.644 8.644 0 0 1-3.495-.735zm8.866-4.408.928-1.49-.75-1.869c-1.363 2.477-3.713 4.22-6.457 4.702-.119.4-.277.82-.435 1.218 2.488.525 5.055-.42 6.714-2.561zM83.8 24.14c2.37-.693 4.245-2.645 4.897-5.248l-1.086-2.708c-.316 2.729-1.718 5.185-3.91 6.801.06.378.099.777.099 1.155zm-.85-3.61c1.56-1.407 2.45-3.464 2.45-5.626 0-.525-.06-1.05-.159-1.575l-.276-.965-1.955-.84c.316 1.008.474 2.036.474 3.086a10.06 10.06 0 0 1-1.165 4.786c.237.357.454.734.632 1.133zm-20.357-.987c2.152-1.302 4.72-1.659 7.187-.903.277-.336.573-.63.889-.924-2.014-1.595-4.72-1.93-7.089-.776l-.987 2.603zm18.028-2.015a7.928 7.928 0 0 0 .572-2.94 7.785 7.785 0 0 0-1.421-4.491l-3.337-1.428c2.093 1.869 3.297 4.597 3.297 7.536.02.23 0 .462-.02.693.316.189.613.399.909.63zm-7.859-1.134a6.197 6.197 0 0 1 1.046-.357c-1.204-2.393-3.534-3.925-6.16-3.925a1.63 1.63 0 0 1-.316-.042l-2.29 1.028-.336.903c.592-.105 1.204-.189 1.816-.189 2.271 0 4.502.903 6.24 2.582zm4.68-.42c-.08-2.708-1.54-5.184-3.91-6.423-.099-.042-.178-.105-.257-.168l-2.23 1.007c2.33.966 4.205 2.897 5.172 5.416.415.021.83.084 1.225.168z" stroke="#000" stroke-width=".198"/><path d="M33.37 42.716c-.138 0-.296-.021-.434-.084l-11.571-4.975a1.233 1.233 0 0 1-.632-.65L15.856 24.81c0-.021 0-.021-.02-.042l-.06-.19c-.039-.21-.039-.42.04-.629 0-.021.02-.042.02-.063l4.66-12.28a1.24 1.24 0 0 1 .612-.672L32.58 5.751c.277-.126.593-.126.869 0l10.288 4.429h.02l1.244.545c.276.126.513.357.631.651l4.799 11.986s0 .021.02.042l.078.189c.119.294.119.63 0 .924l-4.68 12.3a1.24 1.24 0 0 1-.611.671l-11.473 5.185a1.766 1.766 0 0 1-.394.042zm-4.285-4.366 3.752 1.616c-2.212-1.847-3.515-4.68-3.515-7.703 0-.19 0-.4.02-.588a8.689 8.689 0 0 1-1.047-.735 7.883 7.883 0 0 0-.592 3.002c0 1.532.474 3.086 1.382 4.408zm2.547-5.794c.1 2.708 1.58 5.164 3.95 6.382.079.042.158.084.217.147l2.014-.903c-2.29-.987-4.167-2.939-5.114-5.479a9.29 9.29 0 0 1-1.067-.146zm-7.424 3.695 1.659.714a10.576 10.576 0 0 1-.455-3.023c0-1.68.395-3.359 1.225-4.87a6.868 6.868 0 0 1-.553-.987c-1.54 1.407-2.41 3.443-2.41 5.584 0 .525.06 1.05.159 1.595l.375.987zm10.919-3.778c1.185 2.392 3.495 3.946 6.141 3.988.099 0 .178.02.257.042l2.448-1.113.375-.986c-2.843.63-5.825-.21-8.036-2.33-.375.168-.77.315-1.185.399zm-14.888-2.981 1.205 3.001c.296-2.75 1.678-5.247 3.87-6.885-.08-.44-.099-.881-.119-1.322-2.389.672-4.265 2.624-4.956 5.206zm18.146 1.238c2.034 1.575 4.72 1.89 7.089.735l.888-2.351c-2.152 1.28-4.739 1.616-7.187.819a9.827 9.827 0 0 1-.79.797zm-7.365-.923c.79.356 1.619.503 2.468.461a5.549 5.549 0 0 0 2.508-.734 5.714 5.714 0 0 0 1.876-1.763 6.577 6.577 0 0 0 1.026-2.54c.06-.357.08-.714.08-1.05 0-.546-.06-1.091-.198-1.616-.237-.903-.652-1.742-1.244-2.435a5.548 5.548 0 0 0-2.034-1.553 5.293 5.293 0 0 0-2.27-.504h-.297a5.464 5.464 0 0 0-2.409.714 5.96 5.96 0 0 0-1.955 1.826 6.313 6.313 0 0 0-.987 2.456 7.06 7.06 0 0 0-.099 1.112c0 .567.08 1.113.217 1.658.237.861.632 1.659 1.185 2.33a5.659 5.659 0 0 0 2.133 1.638zm9.497-2.036c2.488.524 5.055-.42 6.714-2.561l.928-1.49-.75-1.869c-1.363 2.477-3.712 4.22-6.457 4.702a7.495 7.495 0 0 1-.435 1.218zm-22.253-3.233.75 1.89c1.383-2.478 3.752-4.22 6.517-4.682.099-.378.237-.734.375-1.091-2.508-.504-5.094.503-6.733 2.686l-.909 1.197zm22.905-1.721c.06.378.1.776.1 1.154 2.369-.693 4.245-2.645 4.896-5.247l-1.086-2.708c-.336 2.729-1.718 5.205-3.91 6.8zm-1.382-3.59c.237.357.455.735.632 1.134 1.56-1.407 2.449-3.464 2.449-5.626 0-.525-.06-1.05-.158-1.574l-.277-.966-1.955-.84c.316 1.008.474 2.037.474 3.086a9.999 9.999 0 0 1-1.165 4.786zm-18.739-2.435-.987 2.603c2.152-1.301 4.72-1.658 7.188-.902.276-.336.572-.63.888-.924-2.034-1.616-4.72-1.931-7.089-.777zm16.132-.063c.316.19.612.4.909.63a7.928 7.928 0 0 0 .572-2.939 7.785 7.785 0 0 0-1.422-4.492l-3.336-1.406c2.092 1.868 3.297 4.597 3.297 7.536 0 .21 0 .44-.02.671zm-13.21-3.064c2.271 0 4.502.902 6.24 2.582a6.177 6.177 0 0 1 1.047-.357c-1.205-2.393-3.535-3.925-6.161-3.925-.099 0-.217-.021-.316-.042l-2.29 1.028-.336.903a9.04 9.04 0 0 1 1.816-.19zm9.715 1.973c.415.02.83.084 1.224.168-.079-2.708-1.54-5.185-3.91-6.423-.098-.042-.177-.105-.256-.168l-2.231 1.007c2.33.987 4.206 2.897 5.173 5.416z" fill="#000"/><path d="m32.936 42.632-11.571-4.975a1.233 1.233 0 0 1-.632-.65L15.856 24.81c0-.021 0-.021-.02-.042l-.059-.19c-.04-.21-.04-.42.04-.629 0-.021.02-.042.02-.063l4.66-12.28a1.24 1.24 0 0 1 .611-.672L32.58 5.751c.277-.126.593-.126.87 0l10.287 4.429h.02l1.244.545c.276.126.513.357.632.651l4.798 11.986s0 .021.02.042l.079.189c.118.294.118.63 0 .924l-4.68 12.3a1.24 1.24 0 0 1-.612.671l-11.472 5.185a1.766 1.766 0 0 1-.395.042c-.138 0-.296-.021-.434-.084zm-.099-2.666c-2.211-1.847-3.515-4.68-3.515-7.703 0-.19 0-.4.02-.588a8.689 8.689 0 0 1-1.046-.735 7.883 7.883 0 0 0-.593 3.002c0 1.532.474 3.086 1.383 4.408l3.751 1.616zm2.745-1.028c.079.042.158.084.217.147l2.014-.903c-2.29-.987-4.166-2.939-5.114-5.479a9.29 9.29 0 0 1-1.066-.146c.098 2.707 1.58 5.163 3.949 6.38zm-9.715-1.973a10.576 10.576 0 0 1-.454-3.023c0-1.68.395-3.359 1.224-4.87a6.868 6.868 0 0 1-.553-.987c-1.54 1.407-2.409 3.443-2.409 5.584 0 .525.06 1.05.158 1.595l.375.987 1.659.714zm15.402-.504c.099 0 .178.02.257.042l2.448-1.113.375-.986c-2.843.63-5.825-.21-8.036-2.33-.375.168-.77.315-1.185.399 1.185 2.392 3.495 3.946 6.141 3.988zm-19.825-3.967c.296-2.75 1.678-5.248 3.87-6.886-.079-.44-.099-.881-.118-1.322-2.39.672-4.265 2.624-4.957 5.206l1.205 3.001zm24.03-1.03.889-2.35c-2.153 1.28-4.74 1.616-7.188.819a9.827 9.827 0 0 1-.79.797c2.034 1.575 4.72 1.89 7.089.735zm-11.986-1.196a5.549 5.549 0 0 0 2.508-.734 5.714 5.714 0 0 0 1.876-1.763 6.577 6.577 0 0 0 1.026-2.54c.06-.357.08-.714.08-1.05 0-.546-.06-1.091-.198-1.616-.237-.903-.652-1.742-1.244-2.435a5.548 5.548 0 0 0-2.034-1.553 5.293 5.293 0 0 0-2.27-.504h-.297a5.464 5.464 0 0 0-2.409.714 5.96 5.96 0 0 0-1.955 1.826 6.313 6.313 0 0 0-.987 2.456 7.06 7.06 0 0 0-.099 1.112c0 .567.08 1.113.217 1.658.237.861.632 1.659 1.185 2.33a5.659 5.659 0 0 0 2.133 1.638c.79.356 1.619.503 2.468.461zm13.743-5.058.928-1.49-.75-1.869c-1.363 2.477-3.713 4.22-6.457 4.702a7.495 7.495 0 0 1-.435 1.218c2.488.524 5.055-.42 6.714-2.561zm-28.217 1.217c1.382-2.477 3.752-4.219 6.516-4.68.099-.379.237-.735.375-1.092-2.507-.504-5.094.503-6.733 2.686l-.908 1.197.75 1.89zm22.254-2.456c2.37-.693 4.245-2.645 4.897-5.247l-1.086-2.708c-.336 2.729-1.718 5.206-3.91 6.8.06.379.099.777.099 1.155zm-.85-3.61c1.56-1.407 2.45-3.464 2.45-5.626 0-.525-.06-1.05-.159-1.574l-.276-.966-1.955-.84c.316 1.008.474 2.037.474 3.086a9.999 9.999 0 0 1-1.165 4.786c.237.357.454.735.632 1.134zm-20.357-.966c2.152-1.301 4.719-1.658 7.187-.902.277-.336.573-.63.889-.924-2.034-1.616-4.72-1.931-7.089-.777l-.987 2.603zm18.028-2.036a7.928 7.928 0 0 0 .572-2.939 7.785 7.785 0 0 0-1.421-4.492l-3.337-1.406c2.093 1.868 3.297 4.597 3.297 7.536 0 .21 0 .44-.02.671.316.19.613.4.909.63zm-7.879-1.112a6.177 6.177 0 0 1 1.047-.357c-1.205-2.393-3.535-3.925-6.16-3.925-.1 0-.218-.021-.317-.042l-2.29 1.028-.336.903a9.04 9.04 0 0 1 1.817-.19c2.27 0 4.502.903 6.24 2.583zm4.7-.441c-.08-2.708-1.54-5.185-3.91-6.423-.099-.042-.178-.105-.257-.168l-2.23 1.007c2.33.987 4.205 2.897 5.172 5.416.415.021.83.084 1.225.168z" stroke="#000" stroke-width=".198"/><path d="M47.054 46.096c-.138 0-.296-.02-.434-.084-.593-.252-.87-.966-.632-1.595l7.68-20.235L45.436 3.59c-.257-.609.02-1.344.612-1.595.573-.273 1.264.02 1.5.65L55.96 23.7c.119.294.119.63 0 .924L48.12 45.32c-.197.483-.612.776-1.066.776z" fill="#000"/><path d="M46.62 46.012c-.592-.252-.869-.966-.632-1.595l7.681-20.235L45.435 3.59c-.256-.609.02-1.344.612-1.595.573-.273 1.264.02 1.501.65L55.96 23.7c.118.294.118.63 0 .924L48.12 45.32c-.197.482-.611.776-1.066.776-.138 0-.296-.02-.434-.084z" stroke="#000" stroke-width=".198"/><path d="M62.219 18.22c-.454 0-.869-.273-1.047-.735L55.624 3.59c-.257-.608.02-1.343.612-1.595.592-.273 1.264.021 1.5.65l5.55 13.897c.256.609-.02 1.343-.613 1.595a1.226 1.226 0 0 1-.454.084z" fill="#000"/><path d="M61.172 17.486 55.624 3.59c-.257-.609.02-1.343.612-1.595.592-.273 1.263.02 1.5.65l5.549 13.896c.257.61-.02 1.344-.612 1.596a1.226 1.226 0 0 1-.454.084c-.455 0-.87-.273-1.047-.735z" stroke="#000" stroke-width=".198"/><path d="M57.204 46.096c-.138 0-.296-.021-.434-.084-.593-.252-.87-.966-.632-1.595l5.015-13.203c.237-.63.909-.924 1.5-.672.593.252.87.965.633 1.595L58.27 45.34a1.161 1.161 0 0 1-1.066.756z" fill="#000"/><path d="M56.769 46.012c-.592-.252-.869-.966-.632-1.595l5.016-13.203c.237-.63.908-.924 1.5-.672.593.252.87.965.632 1.595L58.27 45.34a1.161 1.161 0 0 1-1.067.756c-.138 0-.296-.021-.434-.084z" stroke="#000" stroke-width=".198"/><path d="M16.685 6.97H6.457c-.632 0-1.145-.547-1.145-1.218 0-.672.513-1.218 1.145-1.218h10.228c.632 0 1.145.546 1.145 1.218 0 .671-.513 1.217-1.145 1.217z" fill="#000"/><path d="M6.457 6.97c-.632 0-1.145-.547-1.145-1.218 0-.672.513-1.218 1.145-1.218h10.228c.632 0 1.145.546 1.145 1.218 0 .671-.513 1.217-1.145 1.217H6.457z" stroke="#000" stroke-width=".198"/><path d="M16.646 43.451H6.457c-.632 0-1.145-.546-1.145-1.218 0-.671.513-1.217 1.145-1.217h10.189c.632 0 1.145.546 1.145 1.218 0 .671-.513 1.217-1.145 1.217z" fill="#000"/><path d="M6.457 43.451c-.632 0-1.145-.546-1.145-1.218 0-.671.513-1.217 1.145-1.217h10.19c.631 0 1.144.546 1.144 1.218 0 .671-.513 1.217-1.145 1.217H6.457z" stroke="#000" stroke-width=".198"/><path d="M49.523 25.399c-.632 0-1.145-.546-1.145-1.218 0-.671.513-1.217 1.145-1.217l5.39-.02c.632 0 1.146.545 1.146 1.216 0 .672-.514 1.218-1.145 1.218l-5.391.021z" fill="#000"/><path d="M48.377 24.182c0-.672.513-1.217 1.145-1.217l5.39-.021c.633 0 1.146.545 1.146 1.217s-.513 1.218-1.145 1.218l-5.39.02c-.633 0-1.146-.545-1.146-1.217z" stroke="#000" stroke-width=".198"/><path d="M16.942 25.714h-6.93c-.633 0-1.146-.546-1.146-1.218s.513-1.217 1.145-1.217h6.931c.632 0 1.145.546 1.145 1.217s-.513 1.218-1.145 1.218z" fill="#000"/><path d="M10.011 25.714c-.632 0-1.145-.546-1.145-1.218s.513-1.217 1.145-1.217h6.93c.633 0 1.146.546 1.146 1.217s-.513 1.218-1.145 1.218H10.01z" stroke="#000" stroke-width=".198"/></g></svg>